<svg width="24" height="24" viewBox="0 0 24 24" fill="none" xmlns="http://www.w3.org/2000/svg">
<path d="M23.953 4.56997C23.0545 4.96557 22.1026 5.2267 21.128 5.34496C22.1541 4.72822 22.9224 3.76101 23.291 2.62197C22.34 3.17697 21.286 3.58097 20.164 3.80597C19.4238 3.01439 18.4429 2.48939 17.3736 2.31247C16.3044 2.13555 15.2067 2.31662 14.2509 2.82756C13.2952 3.3385 12.5349 4.15072 12.0881 5.13809C11.6412 6.12546 11.533 7.23273 11.78 8.28797C7.69 8.09497 4.067 6.12996 1.64 3.16197C1.19879 3.91178 0.968664 4.76699 0.974 5.63697C0.974 7.34697 1.844 8.84996 3.162 9.73296C2.38086 9.7081 1.61697 9.4969 0.934 9.11696V9.17697C0.933557 10.3134 1.32627 11.4149 2.04551 12.2947C2.76474 13.1745 3.76621 13.7784 4.88 14.004C4.1583 14.1973 3.40241 14.2264 2.668 14.089C2.98412 15.067 3.59766 15.9219 4.42301 16.5345C5.24837 17.147 6.24435 17.4867 7.272 17.506C5.53153 18.8719 3.38248 19.6133 1.17 19.611C0.78 19.611 0.391 19.588 0 19.544C2.25571 20.9883 4.87851 21.755 7.557 21.753C16.61 21.753 21.555 14.257 21.555 7.76797C21.555 7.55797 21.555 7.34797 21.54 7.13797C22.506 6.44283 23.3392 5.57978 24 4.58997L23.953 4.56997Z" fill="white"/>
</svg>
