<svg version="1.1" xmlns="http://www.w3.org/2000/svg" viewBox="0 0 640.273716030423 197.0494686998427" width="1280.547432060846" height="394.0989373996854" filter="invert(93%) hue-rotate(180deg)">
  <!-- svg-source:excalidraw -->
  
  <defs>
    <style class="style-fonts">
      @font-face {
        font-family: "Virgil";
        src: url("https://excalidraw.com/Virgil.woff2");
      }
      @font-face {
        font-family: "Cascadia";
        src: url("https://excalidraw.com/Cascadia.woff2");
      }
    </style>
    
  </defs>
  <rect x="0" y="0" width="640.273716030423" height="197.0494686998427" fill="#ffffff"></rect><g stroke-linecap="round" transform="translate(12.348604353670453 27.96743744984269) rotate(0 141.0546875 28.78515625)"><path d="M0 0 C0 0, 0 0, 0 0 M0 0 C0 0, 0 0, 0 0 M-0.79 6.66 C1.12 4.55, 2.65 3.65, 4.81 0.86 M-0.08 6.26 C1.64 3.8, 4.08 1.54, 4.92 0.02 M1.57 11.6 C3.76 7.74, 5.56 5.45, 11.48 0.57 M-0.22 11.26 C4.23 7.78, 7.67 4.49, 11.24 -0.25 M-1.82 16.79 C4.71 11.06, 13.49 5.7, 15.2 0.8 M0.54 19.21 C5.88 11.66, 11.28 5.7, 16.43 1.29 M-0.71 25.39 C8.5 16.89, 17.74 6.33, 20.58 0.72 M0.51 23.15 C8.15 14.42, 14.75 6.84, 20.34 0.45 M0.95 31.39 C10.92 19.89, 18.34 10.43, 25.73 2.28 M0.46 30.47 C7.12 23.5, 14.92 13.93, 26.19 0.58 M-2.18 36.5 C4.89 28.84, 11.58 20.26, 32.88 1.38 M-0.48 37.72 C7.22 29.85, 13.73 20.57, 31.61 -0.31 M0.32 41.59 C13.67 27.25, 25.22 13.75, 38.17 -0.65 M-0.21 42.08 C7.54 34.53, 14.73 25.97, 36.2 -0.17 M-0.63 50.14 C15.31 31.95, 30.84 12.65, 43.57 -1.91 M-1.07 48.98 C9.19 36.13, 21.38 24.95, 43.36 0.37 M1.77 56.26 C17.01 35.45, 35.31 14.11, 46.44 -0.55 M-0.56 54.21 C11.32 42.22, 21.41 31.92, 47.67 -0.55 M1.66 57.71 C10.24 45.06, 21.45 35.71, 51.5 0.34 M1.97 59.06 C14.03 44.74, 26.98 28.46, 52.8 -0.68 M5.22 58.86 C28.63 37.14, 45.83 11.81, 56.33 0.12 M7.93 59.43 C21.95 42.25, 38.13 23.01, 58.84 -0.25 M11.54 58.73 C27.47 38.27, 44.87 20.87, 63.38 -0.26 M12.2 58 C24.1 46.62, 34.53 32.45, 64.21 -0.64 M17.26 57.51 C34.17 35.57, 54.9 14.98, 69.49 1.06 M17.67 58.8 C34.05 41.61, 49.09 23.45, 69.01 1.02 M23.98 60.95 C38.52 42.43, 49.31 26.26, 73.83 -1.95 M22.5 59.87 C36.78 41.06, 53.5 23.96, 74.93 -0.78 M27.05 59.99 C46.62 39.24, 62 18.06, 79.46 0.07 M28.81 58.84 C40.25 44.94, 52.75 31.3, 78.57 -0.54 M32.34 58.17 C50.42 41.58, 66.91 22, 85.31 -0.88 M33.3 58.63 C47.29 42.18, 61.74 25.86, 85.36 -0.42 M39.57 59.67 C49.74 44.88, 63.13 30.94, 91.66 1.08 M38.5 59.48 C54.54 39.87, 71.97 21.17, 90.94 -0.79 M43.87 60.56 C64.89 34.31, 85.96 13.43, 96.17 0.96 M44.13 58.42 C57.76 42.47, 72.81 25.47, 94.98 -0.95 M47.68 60.04 C65.68 39.75, 84.36 15.99, 99.37 -1.85 M48.97 58.57 C66.98 37.97, 84.95 17.5, 100.62 0.35 M54.35 59.69 C73.55 37.02, 91.58 17.55, 104.65 -0.32 M54.23 58.57 C69.33 42.1, 86.43 24.22, 106.3 0.18 M60.09 58.73 C70.2 43.57, 85.85 32.9, 111.76 -0.54 M59.48 57.92 C76 39.26, 92.15 21.81, 111.17 0.9 M63.46 57.24 C83.52 37.54, 104.04 12.8, 116.17 2.28 M65.92 58.36 C77.48 44.73, 92.22 29.61, 116.27 0.21 M69.4 59.47 C88.16 37.32, 107.23 17.25, 121.85 -0.69 M70.38 59.26 C82.06 46.21, 93.72 32.42, 121.21 0.81 M74.72 61.02 C92.59 39.09, 111.79 21.63, 126.04 -0.38 M76.57 58.99 C90.26 41.89, 106.81 24.92, 126.84 0.05 M80.09 60.13 C95.75 44.17, 109.78 27.45, 130.58 -1.86 M81.07 58.27 C95.21 43.75, 107.36 28.69, 132.43 -0.01 M87.55 60.95 C94.48 45.88, 108.03 34.02, 139.44 -1.05 M86.61 59.6 C103.76 38.94, 121.82 20.09, 137.08 0.83 M92.51 60.72 C104.08 44.33, 117.76 29.35, 142.71 -1.5 M92.02 58.57 C111.79 36.05, 132.45 13.38, 143.58 0.26 M97.24 61.1 C108.64 43.46, 123.53 26.98, 150.09 0.89 M97.54 59.28 C113.61 39.32, 130.18 19.25, 147.77 0.84 M102.88 59.35 C121.11 38.83, 137.3 18.91, 154.91 1.08 M102.76 59.69 C123.17 35.23, 142.88 11.33, 154.46 -0.61 M106.94 59.64 C124.44 41.05, 137.76 22.28, 159.61 0.19 M107.92 59.03 C126.12 36.08, 147.5 12.77, 158.75 0.33 M111.3 60.26 C133.92 35.9, 152.85 12.82, 163.73 0.68 M113.87 59.13 C126.24 43.12, 140 29.7, 163.95 -0.92 M119.7 60.88 C128.15 48.24, 140.5 31.75, 169.45 1.7 M117.37 59.83 C130.07 46.11, 141.03 32.76, 168.92 -0.54 M125.75 57.82 C135.06 45.83, 145.51 35.37, 173.57 -1.76 M123.02 58.32 C140.15 40.26, 155.51 21.17, 175.98 -1.02 M130.43 59.26 C142.07 47.09, 153.24 33.7, 180.98 0.44 M128.58 58.56 C145.32 38.54, 163.71 18.83, 180.24 0.34 M133.43 61.28 C149.14 40.48, 164.79 26.59, 184.71 0.8 M134.25 59.36 C152.92 40.36, 169.2 19.02, 185.54 0.68 M137.92 59.33 C152.92 44.65, 162.87 32.76, 191.41 1.5 M139.29 58.05 C151.82 44.75, 163.1 32.12, 189.75 1.03 M143.36 59.75 C157.49 42.29, 170.59 26.38, 197.33 1.56 M144.67 60.06 C158.23 43.22, 171.77 26.04, 196.71 -0.32 M148.82 59.77 C161.23 46.22, 171.53 33.48, 201.85 0.15 M150.31 59.07 C162.13 46.3, 171.99 33.18, 201.54 -0.48 M154.49 58.73 C167.08 44.14, 178.98 30.62, 207.46 -0.18 M154.45 58.39 C168.9 43.64, 181.69 29.71, 206.59 -0.55 M161.67 57.38 C179.26 37.52, 198.48 18.62, 213.27 1.75 M161.52 58.33 C179.97 37.9, 199.76 15.86, 212.75 -0.27 M166.29 61.09 C179.31 43.46, 191.42 29.43, 219 1.01 M165.5 59.55 C178.74 46.1, 189.56 31.7, 217.38 -0.63 M170.89 59.11 C184.71 44.87, 195.2 32.59, 222.52 1.79 M171.84 58.47 C191.43 37.16, 211.37 14.83, 221.61 -0.48 M178.12 59.83 C186.58 47.78, 199.57 32.66, 227.76 0.68 M176.79 58.63 C194.01 40.5, 210.5 19.58, 228.32 -1.21 M182.76 58.01 C193.69 47.64, 203.72 31.29, 234.32 1.9 M181.28 58.07 C198 40.42, 215.34 20.32, 233.4 0.69 M185.2 58.05 C207.66 35.34, 225.04 14.88, 236.73 1.28 M186.34 58.7 C201.39 44.14, 214.76 26.72, 239.06 -0.28 M191.45 57.25 C207.66 38.09, 224.38 20.79, 245.27 1.8 M192.9 59.66 C206.46 42.41, 219.17 27.32, 244.44 -1.02 M198.63 61.02 C213.66 42.39, 226.67 25.1, 250.76 1.1 M197.24 58.73 C215.21 37.42, 233.52 17.68, 248.29 -0.15 M202.99 58.15 C218.16 40.31, 236.54 20.29, 255.86 -0.61 M202.82 59.68 C218.08 43.19, 230.49 26.49, 254.16 0.06 M209.39 60.08 C230.01 34.91, 247.56 13.16, 260.61 -1.18 M207.65 59.65 C224.87 39.11, 241.28 19.88, 259.79 1.1 M215.3 60.13 C225.46 47.05, 236.01 31.6, 266.42 -1.36 M214.21 58.53 C224.46 45.9, 234.76 33.72, 265.01 -0.45 M220.31 60.75 C229.63 43.85, 244.72 30.37, 269.57 -1.49 M218.79 58.33 C233.4 42.59, 246.53 27.91, 271.06 0.53 M226.15 56.76 C238.02 43.3, 248.18 30.55, 277.19 1.69 M225.34 58.54 C240.5 40.49, 256.86 22.58, 276.51 -1 M230.14 58.63 C243.74 41.47, 259.85 23.94, 280.79 -1.65 M228.92 59.56 C245.1 41.55, 258.72 25.08, 280.64 1.18 M233.22 59.71 C254.65 37.12, 271.27 14.42, 286.29 3.03 M235.51 57.98 C247.7 44.14, 258.74 32.03, 285.31 2.15 M241.46 59.48 C254.79 42.1, 268.07 26.64, 286.11 6.93 M239.4 58.08 C253.34 46.03, 263.84 31.41, 284.96 8.28 M245.39 59.55 C257.11 46.13, 264.97 35.34, 283.14 12.58 M244.43 59.82 C253.28 49.74, 263.66 38.84, 284.48 13.99 M252.76 59.16 C263.62 42.94, 276.67 29.7, 284.36 22.18 M250.62 58.56 C261.42 46.18, 272.1 34.93, 284.63 20.22 M257.37 58.7 C265.51 48.64, 277.96 36.47, 284.11 25.03 M254.85 58.68 C264.25 48.01, 275.11 38.49, 285.27 26.05 M262.38 59.67 C268.95 51.09, 277.47 40.97, 285.61 32.86 M262.05 59.63 C268.32 50.87, 275.06 43.95, 284.68 32.05 M265.8 59.97 C270.12 53.36, 275.34 50.76, 284.28 39.75 M266.61 59.39 C271.58 52.97, 278.97 46.56, 284.8 38.4 M272.52 57.21 C274.71 53.31, 281.9 47.29, 284.54 45.62 M272.22 59.77 C275.06 54.46, 278.84 50.76, 283.94 44.53 M276.39 59.43 C279.28 56.77, 280.11 55.7, 284.43 51.54 M277.18 59.68 C279.58 57.48, 280.58 54.92, 284.8 50.87" stroke="#b2f2bb" stroke-width="0.5" fill="none"></path><path d="M1.36 0.37 C101.62 -1.92, 203.47 -1.19, 281.45 -0.84 M-0.09 -0.53 C62.67 1.85, 123.67 1.75, 282.22 0.14 M283.55 -0.52 C281.34 22.37, 281.71 44.5, 280.49 56.61 M282.79 0.48 C282.7 13.78, 281.91 28.26, 281.25 57.51 M280.6 57.98 C221.94 58.65, 162.16 60.52, -1.33 57.47 M282.56 56.81 C210.6 59.91, 138.74 60.29, -0.16 57.3 M0.35 56.76 C0.15 41.45, 0.73 25.35, 1.26 1.12 M-0.98 57.92 C-0.35 35.6, -1.05 12.73, -0.05 0.34" stroke="#1e1e1e" stroke-width="1" fill="none"></path></g><g transform="translate(71.22337547183452 44.25259369984269) rotate(0 82.17991638183594 12.5)"><text x="82.17991638183594" y="0" font-family="Virgil, Segoe UI Emoji" font-size="20px" fill="#1e1e1e" text-anchor="middle" style="white-space: pre;" direction="ltr" dominant-baseline="text-before-edge">Download Layers</text></g><g stroke-linecap="round" transform="translate(297.11813560367045 89.96353119984269) rotate(0 141.0546875 28.78515625)"><path d="M0 0 C0 0, 0 0, 0 0 M0 0 C0 0, 0 0, 0 0 M0.15 6.73 C0.5 5.71, 2.52 4.03, 5.71 0.33 M0.14 6.24 C1.04 4.55, 3.18 2.63, 4.99 0.73 M0.59 10.7 C4.95 7.56, 6.98 2.21, 9.3 -0.02 M0.73 11.3 C2.07 9.6, 4.28 7.74, 11.2 0.49 M-0.53 19.7 C4.1 11.58, 11.48 4.61, 15.48 0.33 M-0.58 17.51 C3.4 14.43, 5.76 10.53, 15.64 0.98 M-0.59 25.67 C5.84 18.5, 10.54 12.81, 20.58 1.71 M-0.62 23.51 C5.18 19.13, 8.99 12.76, 20.28 -0.59 M1.01 31.86 C9.58 17.32, 21.62 8.75, 25.44 0.91 M-0.38 29.59 C7.58 21.56, 15.21 11.94, 27.08 -0.55 M-1.81 34.96 C13.6 22.32, 24.8 6.53, 30.07 -1.69 M0 36.42 C7.87 27.22, 15.46 19.19, 31.17 0.49 M-0.88 44.31 C9.5 32.94, 15.19 23.49, 38.85 1.21 M0.11 42.56 C10.17 31.53, 20.67 21.08, 36.38 1.2 M-0.99 49.39 C12.53 35.09, 25.84 17.83, 40.54 -0.98 M-0.15 48.08 C10.27 37.7, 19.94 24.56, 43.1 0.85 M-0.59 55.8 C15.09 40.11, 28.07 20.77, 45.74 -1.46 M0.73 54.65 C14.93 36.31, 30.97 19.24, 47.67 0.71 M3.72 58.27 C14.9 43.39, 27.42 32.13, 54.95 -0.79 M1.12 58.7 C13.4 46.63, 23.11 34.99, 52.23 -0.59 M5.9 59.66 C24.46 41.64, 38.47 21.91, 60.01 0.34 M6.94 58.51 C24.56 39.9, 40.55 21.47, 58.13 0.36 M11.29 58.98 C25.61 39.83, 41.29 23.26, 64.16 0.37 M12.31 58.38 C29.23 39.92, 45.9 19.72, 63.77 -0.96 M17.31 57.89 C36.18 38.08, 53.11 20.12, 67.47 0.15 M18.09 59.24 C31.97 42.88, 45.93 25.99, 68.01 0.48 M20.83 61.15 C37.19 40.83, 55.18 22.28, 74.89 -1.87 M23.22 59.26 C42.58 38.04, 61.13 14.12, 74 0.54 M26.95 60.15 C43.25 41.89, 53.74 28.41, 77.76 1.67 M27.28 59.45 C39.64 45.07, 52.17 31.21, 78.61 -0.65 M33.81 60.44 C46.62 43.12, 59.36 30.17, 85.75 -1.77 M33.22 59.35 C49.5 41.2, 65.92 21.11, 84.26 0.64 M39.91 57.67 C58.89 36.87, 76.86 14.42, 88.42 -1.31 M38.58 59.1 C59.54 35.73, 78.46 10.96, 90.31 -0.84 M45.61 60.91 C62.89 40.19, 76.63 17.66, 95.2 0.53 M44.79 58.86 C61.27 39.38, 79.36 19.07, 94.95 0.02 M49.15 59.83 C71.45 36.55, 88.82 12.61, 100.88 -0.86 M49.15 58.13 C68.93 35.85, 88.25 14.54, 100.54 0.07 M56.14 60 C70.58 39.12, 87.55 22.76, 105.6 -0.97 M54.11 59.18 C72.15 37.46, 92.65 15.74, 105.53 -0.72 M59.54 58.12 C80.85 36.98, 99.23 13.93, 112.41 1.1 M59.21 58.39 C79.18 37.41, 99.5 13.26, 111.8 0.15 M65.19 57.27 C81.08 41.46, 95.22 27.9, 114.52 -1.39 M64.42 59.65 C84.22 35.8, 104.21 15.08, 115.89 -0.25 M71.8 58.16 C86.14 38.33, 103.99 22.96, 120.17 0.73 M70.04 59.7 C80.85 45.24, 92.57 33.2, 121.66 -0.58 M76.43 58.39 C95.28 37.52, 114.21 17.37, 125.36 0 M76.04 59.54 C92.5 41.33, 107.88 23.03, 126.93 0.38 M82.52 59.69 C94.06 44.11, 108.17 29.37, 133.21 0.34 M81.98 59.78 C94.48 43.21, 108.17 28.55, 132.72 -0.16 M85.38 59.18 C101.72 44.96, 112.85 28.58, 139.45 0.32 M86.34 60.04 C102.38 42.31, 117.03 24.33, 136.63 0.37 M92.19 60.59 C113.16 38.17, 128.09 16.9, 144.44 0.37 M92.43 58.31 C106.86 40.9, 124.25 22.86, 142.69 -0.7 M95.47 57.56 C113.17 38.24, 132.07 21.95, 146.64 2.07 M97.74 58.31 C111.34 42.86, 124.81 27.45, 148.73 0.07 M101.14 56.84 C121.01 40.04, 139.79 18.06, 154.64 -0.63 M101.85 58.9 C120.31 38.36, 136.19 18.78, 154.29 -0.37 M105.97 57.59 C122.38 44.19, 137.25 27.08, 160.64 1.86 M107.76 59.43 C126.06 37.65, 145.49 13.99, 157.98 -0.21 M113.61 58.57 C131.82 36, 149.86 18.29, 164.47 -1.98 M113.78 59.1 C128.44 39.03, 146.36 20.7, 165.35 0.6 M120.06 57.46 C130.01 42.53, 143.63 28.68, 171.07 -1.55 M118.94 58.4 C135.56 40.27, 150.88 20.39, 170.25 -0.24 M125.7 58.02 C140.66 42.27, 154.75 22.28, 174.48 -0.87 M124.81 58.41 C136.15 44.67, 148.09 31.69, 174.73 -0.07 M128.76 57.46 C138.33 47.77, 148.96 35.54, 179.38 0.7 M128.91 58.2 C138.74 46.05, 150.83 33.67, 180.42 0.16 M132.72 58.32 C145.8 47.93, 155.67 33.14, 185.07 -0.37 M133.93 58.99 C145.83 45.21, 156.27 31.44, 186.37 -0.76 M139 60.04 C153.63 42.06, 170.77 22.05, 190.95 -0.4 M140.36 59.71 C157.56 36.92, 178.16 14.02, 190.47 1.09 M143.83 58.44 C162.02 35.79, 181.66 18.09, 196.54 -1.41 M145.17 58.7 C158.03 42.89, 170.94 28.55, 197.27 0.12 M149.55 57.74 C165.59 44.14, 176.62 28.27, 202.98 0.27 M151.02 59.77 C163.99 41.24, 180.45 23.54, 201.42 0.62 M154.11 57.77 C171.41 37.25, 193.75 17.58, 205.03 1.17 M155.65 59.6 C169.46 42.13, 184.41 25.74, 207.49 0.09 M159.08 57.25 C176.98 42.61, 193.14 22.3, 212.58 1.96 M161.72 59.14 C175.41 42.57, 189.28 24.79, 211.37 0.72 M167.15 61.04 C184.28 39.44, 199.2 17.86, 218.6 -1.31 M166.22 58.93 C176.63 47.06, 188.3 31.96, 218.14 0.61 M170.12 59.38 C188.63 36.9, 205.94 16.4, 220.72 -1.96 M172.32 58.52 C183.3 46.42, 193.59 34.18, 223.46 -0.68 M174.43 59.13 C192.83 41.82, 210.29 23.14, 229.15 0.57 M176.78 59.85 C188.89 44.22, 201.13 29.04, 227.42 -0.93 M181.1 59.06 C192.47 47.63, 202.97 33.47, 232.25 -0.01 M181.76 58.57 C201.63 36.05, 220.91 14.73, 233.92 0.28 M187.29 61.04 C198.5 46.19, 211.57 33.66, 239.82 -0.86 M186.29 59.49 C199.99 43.73, 212.93 28.88, 237.91 -0.44 M194.29 57.34 C205.81 44.09, 219.44 31.36, 243.9 1.45 M192.04 57.87 C206.01 44.14, 219.17 28.33, 244.02 -0.59 M196.97 57.87 C213.76 40.14, 230.85 24.79, 247.58 -1.45 M196.78 58.88 C217.75 36.5, 238.29 12.14, 249.24 -0.17 M203.86 57.4 C217.51 42.34, 232.86 23.7, 256.27 -1.85 M204.21 58.92 C218.88 40.86, 236 21.84, 254.11 0.43 M206.56 58.87 C223.92 40.71, 238.91 23.08, 259.3 -0.62 M207.34 59.02 C227.15 37.96, 245.65 16.44, 260.12 -0.16 M215.84 60.56 C228.87 41.75, 238.59 29.2, 265.83 -0.03 M214.39 58.19 C224.66 45.82, 235.73 33.03, 265.58 -0.97 M219.04 59.42 C229.63 45.23, 245.74 29.15, 270.41 -0.45 M218.13 58.84 C233.09 41.12, 247.72 23.69, 270.98 0.75 M224.15 58.24 C237.82 42.98, 250.09 29.58, 276.93 -1.11 M223.78 58.08 C235.79 46.64, 245.11 34.75, 274.9 0.82 M229.26 61 C245.32 38.39, 264.61 20.67, 280.18 -0.87 M230.37 59.19 C243.78 44.39, 256.15 27.48, 281.33 -0.38 M234.57 60.01 C256.02 35, 275.22 13.54, 283.83 3.3 M234.62 58.91 C253.06 38.82, 269.95 16.66, 283.63 1.61 M239.93 59.24 C256.83 37.92, 274.32 20.86, 284.57 8.59 M240.32 58.87 C257.8 38.71, 275.83 19.66, 284.5 7.79 M244.12 58.29 C261.11 41.54, 273.27 26.96, 284.06 13 M245.55 59.7 C257.35 44.67, 270.44 30.25, 283.81 14.44 M249.66 59.88 C263.4 43.08, 276.79 27.34, 282.55 19.71 M251.33 58.63 C263.95 44.28, 275.94 31.6, 284.06 19.67 M255.63 57.38 C266.27 47.78, 274.18 37.55, 286.13 24.53 M256.28 59.16 C265 47.79, 274.44 38.93, 285.61 26.92 M260.93 58.79 C268.13 53.77, 269.72 46.43, 284.3 31.16 M261.81 59.13 C267.84 52.64, 273.87 45.37, 283.97 32.39 M265.87 57.98 C271.96 50.28, 280.7 44.32, 285.24 39.15 M265.56 60.18 C273.41 51.19, 279.81 42.85, 285.09 39.16 M272.09 58.01 C276.36 56.59, 279.57 51.18, 284.62 43.53 M271.26 59 C276.91 54.14, 282.78 48.26, 284 44.77 M276.54 58.66 C279.49 57.39, 280.38 55.48, 283.25 50.44 M277.52 59.05 C279.17 55.97, 282.47 53.08, 283.76 50.98" stroke="#ffc9c9" stroke-width="0.5" fill="none"></path><path d="M0.52 0.69 C70.5 -0.83, 139.62 1.16, 283.46 -0.5 M0.06 -0.11 C105.64 0.74, 211.39 1.68, 282.5 -0.67 M283.02 -0.87 C283.89 21.49, 280.66 42.13, 282.35 56.88 M282.73 0.97 C281.99 18.69, 282.82 38.21, 281.6 56.99 M280.82 57.07 C186.6 57.99, 93.59 56.81, 0.74 56.6 M282.4 57.73 C201.31 59.39, 120.45 57.97, 0.68 57.28 M-0.54 59.14 C-1.87 32.88, -1.89 10.1, -1.27 -0.66 M0.23 57.96 C0.59 36.09, 0.42 14.91, 0.82 -0.6" stroke="#1e1e1e" stroke-width="1" fill="none"></path></g><g transform="translate(359.2229100787681 106.24868744984269) rotate(0 78.94991302490234 12.5)"><text x="78.94991302490234" y="0" font-family="Virgil, Segoe UI Emoji" font-size="20px" fill="#1e1e1e" text-anchor="middle" style="white-space: pre;" direction="ltr" dominant-baseline="text-before-edge">Start Container</text></g><g stroke-linecap="round"><g transform="translate(11.383760603670453 150.3307186998427) rotate(0 -0.6097686433067793 -70.55349052324891)"><path d="M-1.07 -0.78 C-1.84 -47.11, 0.15 -93.89, -0.69 -137.76 M0.16 -0.78 C-2.3 -29.42, -1.27 -60.22, -0.49 -140.33" stroke="#1e1e1e" stroke-width="1" fill="none"></path></g></g><mask></mask><g stroke-linecap="round"><g transform="translate(13.635447044827743 147.85570142287952) rotate(0 308.1457155641148 -0.3401048713903947)"><path d="M-0.35 0.19 C193.53 -0.97, 387.4 -1.7, 615.61 -0.34 M-0.01 -0.34 C149.49 0.72, 298.62 0.23, 616.64 0.39" stroke="#1e1e1e" stroke-width="1" fill="none"></path></g><g transform="translate(13.635447044827743 147.85570142287952) rotate(0 308.1457155641148 -0.3401048713903947)"><path d="M587.58 11.13 C596.39 9.13, 605.16 4.07, 614.65 -0.45 M588.42 9.81 C595.5 8.81, 601.67 5.07, 617.22 1.38" stroke="#1e1e1e" stroke-width="1" fill="none"></path></g><g transform="translate(13.635447044827743 147.85570142287952) rotate(0 308.1457155641148 -0.3401048713903947)"><path d="M587.58 -9.4 C596.31 -4.94, 605.07 -3.54, 614.65 -0.45 M588.42 -10.71 C595.58 -6.74, 601.75 -5.5, 617.22 1.38" stroke="#1e1e1e" stroke-width="1" fill="none"></path></g></g><mask></mask><g transform="translate(540.7470418536705 162.0494686998427) rotate(0 19.639976501464844 12.5)"><text x="0" y="0" font-family="Virgil, Segoe UI Emoji" font-size="20px" fill="#1e1e1e" text-anchor="start" style="white-space: pre;" direction="ltr" dominant-baseline="text-before-edge">time</text></g></svg>