<svg version="1.1" xmlns="http://www.w3.org/2000/svg" viewBox="0 0 641.4586429535058 253.33536284788374" width="1282.9172859070115" height="506.6707256957675" filter="invert(93%) hue-rotate(180deg)">
  <!-- svg-source:excalidraw -->
  
  <defs>
    <style class="style-fonts">
      @font-face {
        font-family: "Virgil";
        src: url("https://excalidraw.com/Virgil.woff2");
      }
      @font-face {
        font-family: "Cascadia";
        src: url("https://excalidraw.com/Cascadia.woff2");
      }
    </style>
    
  </defs>
  <rect x="0" y="0" width="641.4586429535058" height="253.33536284788374" fill="#ffffff"></rect><g stroke-linecap="round" transform="translate(80.94826802300474 85.01505034788374) rotate(0 141.0546875 28.78515625)"><path d="M0 0 C0 0, 0 0, 0 0 M0 0 C0 0, 0 0, 0 0 M-0.72 6.92 C1.89 3.88, 3.57 2.82, 5.69 0.65 M-0.06 6.2 C1.16 4.79, 2.82 2.79, 4.84 0.14 M1.02 13.55 C5.1 5.75, 9.97 1.45, 11.02 -0.78 M-0.61 11.24 C1.98 9.21, 5.7 7.2, 10.33 0.68 M1.65 17.01 C5.62 11.31, 11.99 3.75, 15.49 0.19 M0.34 18.91 C5.29 11.8, 12.87 4.74, 16.21 0.39 M-1.33 22.96 C5.11 18.41, 12.29 8.3, 21.45 0 M-0.21 24.08 C8.44 14.8, 15.7 6.98, 20.97 -0.41 M1.44 31.05 C6.2 20.65, 14.58 13.22, 28.06 -0.09 M0.82 29.87 C7.48 21.11, 16.52 11.11, 26.51 -0.01 M-0.82 35.28 C8.72 23.7, 20.41 15.62, 30.4 0.1 M-0.22 37.62 C8.3 25.65, 18.69 14.71, 30.93 0.03 M0.51 41.41 C13.41 25.87, 26.37 11.4, 35.55 0.25 M-0.49 41.64 C9.87 31.02, 17.76 20.44, 36.57 -0.25 M0.71 47.93 C13.89 34.02, 30.7 16.66, 41.13 0.3 M0.78 48.03 C13.13 33.26, 27.33 19.06, 42.65 -0.65 M-0.45 55.57 C17.02 36.87, 35.81 13.37, 47.22 1.15 M0.19 54.11 C13.92 38.74, 26.44 23.49, 47.38 -0.15 M3.31 57.81 C18.98 38.34, 37.07 20.26, 54.95 1.45 M2.35 58.73 C12.56 45.6, 25.35 33.78, 52.59 -0.26 M7.92 57.34 C20.25 44.49, 37.4 26.43, 58.43 -1.63 M7.13 58.71 C25.78 36.62, 46.19 13.75, 57.86 -0.45 M14.41 59.65 C24.69 43.76, 40.19 29.48, 63.3 0.29 M13.21 58.18 C24.73 43.94, 38.02 27.74, 63.14 0.49 M15.94 60.95 C33.57 43.02, 47.92 24.04, 70.68 -0.41 M17.33 58.48 C28.36 45.98, 40.45 32.91, 68.87 1.13 M23.81 58.19 C44.66 36.63, 63.73 12.65, 75.73 1.4 M22.3 59.99 C34.8 46.31, 45.9 31.31, 74.63 -0.05 M26.71 58.04 C49.49 38.78, 68.16 15.22, 79.59 0.34 M28.45 59.04 C40.25 44.81, 51.3 32.8, 79.22 -0.01 M33.97 57.95 C48.71 41.9, 62.58 24.41, 83.92 1.27 M32.98 58.78 C45.85 45.73, 57.94 31.43, 85.33 -0.49 M37.43 59.58 C55.18 43.17, 69.58 23.85, 90.89 0.04 M38 58.54 C52.44 43.42, 64.82 29.92, 89.64 0.56 M43.45 57.6 C56.94 42.87, 67.51 29.94, 93.68 0.24 M44.58 58.49 C58.23 43.05, 72.05 27.87, 95.45 -0.36 M51.39 60.41 C57.84 47.36, 71.81 34.46, 100.46 1.97 M49.44 58.21 C66.49 40.36, 83.14 20.76, 100.81 0.33 M53.63 58.92 C75.57 37.44, 92.52 13.51, 104.94 -1.46 M55.03 59.37 C67.07 45.61, 77.91 30.69, 107.13 -0.13 M62.04 59.27 C72.64 42.81, 86.15 28.18, 110.3 1.29 M60.16 58.32 C78.79 37.29, 96.38 16.41, 111.34 -0.15 M64 59.59 C84.19 35.93, 103.67 12.34, 115.1 1.02 M64.18 58.73 C83.54 38.32, 100.84 19.48, 115.8 -0.46 M68.92 58.75 C83.48 45.73, 95.82 30.83, 120.52 1.04 M71.5 58.2 C89.85 37.1, 106.27 16.96, 121.78 0.77 M76.19 61.13 C95.43 36.21, 113.27 14.78, 125.66 2.15 M75.83 58.93 C91.11 41.28, 107.61 21.7, 126.79 0.81 M81.72 57.33 C95.43 44.14, 105.38 32.84, 133.37 0.13 M80.73 58.27 C93.46 45.79, 104.98 33.11, 132.61 -0.25 M85.93 60.96 C98.84 46.16, 107.14 32.36, 138.26 -1.47 M85.74 59.42 C105.43 36.76, 124.63 15.64, 137.39 1.13 M92.24 57.35 C104.98 44.05, 116.24 30.8, 141.21 1.36 M91.04 57.99 C103.79 45.76, 114.73 31.95, 142.26 0.54 M95.1 60.36 C105.9 48.09, 117.42 35.5, 149.34 1.89 M97.56 58.68 C109.48 44.5, 122.5 27.99, 147.5 0.29 M102.43 57.05 C119.57 38.01, 134.66 20.42, 154.54 -0.63 M103.58 57.88 C116.4 42.34, 130.14 26.78, 153.1 -0.04 M107.68 60.5 C119.13 45.13, 130.53 31.4, 157.45 -0.18 M106.91 58.29 C128.71 36.19, 148.46 11.78, 158.95 1.13 M112.32 58.52 C124.52 45.39, 140.03 28.14, 165.98 0.71 M113.44 59.54 C123.56 45.86, 133.7 35.43, 165.42 -0.12 M117.81 58.42 C133.64 38.95, 151.39 22.4, 171.28 -0.2 M117.34 58.86 C136.46 39.65, 151.89 18.82, 169.51 -0.46 M124.12 59.73 C139.85 40.44, 156.81 20.34, 174.28 -0.2 M123.63 59.63 C143.08 36.37, 163.36 13.63, 175.46 -0.77 M129.72 59.02 C149.14 34.17, 170.94 13.91, 181.64 1.18 M128.34 58.07 C146.52 39.67, 162.76 20.28, 180.89 0.51 M133.45 59.3 C147.59 45.68, 160.61 27.15, 184.29 -1.09 M134.46 58.6 C147.32 45.65, 160.05 31.29, 185.4 0.01 M137.78 59.09 C152.87 41.82, 167.36 26.13, 189.44 -0.81 M139.34 58.68 C155.28 39.85, 172.63 21.45, 190.73 0.05 M144.08 57.43 C162.71 38.73, 181.89 15.36, 195.03 0.21 M144.12 59.74 C161.94 39.13, 180.2 17.3, 195.35 -0.73 M150.49 59.3 C160.09 48.54, 170.97 35.68, 201.76 0.92 M149.69 58.49 C168.89 36.07, 188.22 13.64, 200.6 -0.74 M155.9 60.48 C175.77 36.78, 192.02 18.71, 207.6 -2.26 M154.79 59.63 C174.76 38.25, 194.95 14.86, 207.35 -0.85 M162.46 60.18 C174.62 43.07, 190.12 25.43, 211.77 1.35 M160.69 58.38 C174.11 43.04, 187.86 26.29, 212.04 0.29 M167.59 57.92 C182.51 40.96, 195.72 23.6, 217.25 1.41 M165.25 59.18 C180.69 42.26, 196.13 25.02, 217.39 -1.18 M170.45 58.15 C185.6 43.21, 199.92 27.44, 222.77 -0.67 M171.59 58.28 C185.9 42.19, 199.97 23.75, 222.49 0.35 M175.96 59.11 C188.58 44.65, 203.31 29.11, 229.34 1.01 M176.19 58.36 C194.45 37.81, 213.27 15.94, 227.41 0.53 M181.31 57.49 C194.76 41.23, 209.98 24.86, 232.21 1.59 M181.55 59.18 C203.01 35.82, 221.73 12.53, 233.35 -0.27 M187.94 57.26 C205.02 36.79, 221.89 18.47, 238.73 -1.05 M186.27 60.19 C206.51 37.68, 225.81 15.67, 238.6 0.35 M192.04 58.36 C206.65 43.71, 220.4 27.49, 243.64 -1.29 M191.7 59.15 C206.78 41.97, 219.87 26.17, 243.95 -0.24 M196.58 57.48 C212.81 42.55, 224.29 30.52, 248.33 -0.74 M198.06 58.77 C210.47 44.88, 222.65 31.15, 248.08 1.14 M201.77 56.8 C218.54 38.43, 235.71 22.72, 254.73 1.18 M203.07 59.31 C221.35 39.68, 238.08 19.66, 253.56 0.85 M209.07 60.75 C220.77 48.64, 229.01 35.21, 261.24 0.11 M208.07 59.24 C226.6 39.09, 242.54 19.11, 258.93 1.09 M215.73 60.73 C222.63 48.31, 232.79 33.2, 265.3 -0.65 M214.66 57.84 C226.64 43.39, 240.34 28.2, 265.38 0.46 M218.72 59.91 C233.56 39.58, 252.05 24.27, 271.33 -1.22 M218.78 59.83 C237.18 38.05, 256.96 16.86, 270.83 0.69 M225.3 57.93 C244.2 40.18, 259.98 18.56, 277.27 -0.55 M225.39 57.99 C237.99 43.21, 251.9 26.88, 276.56 -0.87 M228.96 59.69 C248.41 37.96, 267.4 15.67, 282.58 0.44 M228.56 59.81 C246.48 38.98, 265.04 19.17, 281.37 -0.5 M235.96 60.06 C253.73 38.97, 268.92 20.73, 284.75 1.82 M236.12 58.07 C246.81 44.71, 260.6 30.1, 284.21 2.7 M241.34 60.68 C250.91 45.06, 263.06 28.71, 285.91 10.42 M239.76 59.52 C257.79 40.61, 273.63 21.25, 284.91 8.46 M246.69 59.41 C258.71 41.51, 276.75 24.79, 283.33 16.01 M245.01 60.2 C255.43 47.7, 265.52 35.52, 284.79 13.38 M251.54 59.36 C257.17 50.44, 269.31 39.69, 285.49 21.12 M250.64 58.37 C260.37 46.78, 270.16 36.22, 284.86 20.71 M256.54 57.89 C262.17 48.96, 271.41 42.77, 285.87 26.04 M256.09 59.32 C261.96 52.21, 267.62 44.9, 283.78 27.08 M261.37 60.08 C267.45 50.33, 278.38 39.92, 282.98 33.54 M261.4 58.82 C266.62 53.22, 273.17 47.02, 283.93 33.22 M264.72 59.54 C274.75 50.83, 281.72 43.19, 282.14 38.39 M267.38 59.67 C272.6 53.31, 276.79 47.17, 283.43 39.31 M270.84 59.07 C277.97 52.49, 281.2 50.18, 282.94 44.36 M272.19 58.42 C273.69 54.96, 278.18 52.62, 285.44 43.86 M277.15 59.42 C279.9 56.68, 280.66 55.01, 285.22 49.99 M277.3 59.59 C279.55 56.27, 281.79 54.18, 284.04 50.69" stroke="#b2f2bb" stroke-width="0.5" fill="none"></path><path d="M1.03 -0.82 C67.56 3.52, 134.49 1.61, 282.9 -0.59 M0.1 -0.21 C94.55 2.15, 188.48 2.31, 282.65 -0.55 M281.68 1.92 C283.69 20.34, 284.16 36.97, 281.19 57 M282.21 -0.58 C281.84 12.02, 282.97 24.73, 281.45 57.75 M283.55 58.15 C218.13 58.04, 154.94 57.67, -0.94 59.05 M282.74 57.64 C189.33 58.54, 96.58 58.47, 0.61 56.96 M0.21 58.6 C0.93 42.81, -2.18 24.77, -1.56 -2 M-0.96 58.3 C-0.72 43.44, -0.73 30.24, 0.28 -0.17" stroke="#1e1e1e" stroke-width="1" fill="none"></path></g><g transform="translate(139.8230391411688 101.30020659788374) rotate(0 82.17991638183594 12.5)"><text x="82.17991638183594" y="0" font-family="Virgil, Segoe UI Emoji" font-size="20px" fill="#1e1e1e" text-anchor="middle" style="white-space: pre;" direction="ltr" dominant-baseline="text-before-edge">Download Layers</text></g><g stroke-linecap="round" transform="translate(79.92092427300474 143.83145659788374) rotate(0 255 29)"><path d="M0 0 C0 0, 0 0, 0 0 M0 0 C0 0, 0 0, 0 0 M-0.11 6.95 C2.33 4.51, 3.68 1.29, 4.52 0.77 M-0.55 6.58 C0.95 4.63, 2.81 3.06, 4.78 0.58 M1.52 11.02 C4.6 6.63, 7.31 1.65, 9.37 -1.52 M0.71 12.78 C2.04 10.35, 4.82 7.4, 11.29 0.68 M1.09 16.48 C3.32 14.22, 8.74 11.2, 17.44 1.26 M0.84 18.83 C6.02 12.15, 10.98 5.39, 15.16 -0.47 M-0.8 23.15 C5.79 18.09, 11.71 11.83, 20.61 -1.02 M0.96 23.81 C6.08 16.69, 12.54 9.31, 22.14 0.65 M-0.61 30.75 C10.66 20.31, 17.59 11.88, 27.18 1.92 M0.58 29.75 C6.66 22.96, 12.74 15.42, 26.74 0.01 M0.42 38.5 C5.54 29.2, 13.88 22.23, 33.26 -0.03 M0.41 36.25 C10.99 23.28, 24.61 9.58, 31.66 0.08 M-0.04 41.84 C7.77 32.46, 17.02 23.53, 38.51 -0.99 M-0.12 41.65 C7.2 33.35, 15.66 24.79, 36.08 0.67 M1.82 49.48 C9.29 36.77, 21.73 25.64, 40.55 1.67 M0.61 49.83 C8.97 38.24, 18.5 29.17, 42.34 -0.5 M1.85 52.85 C16.55 35.96, 32.96 16.58, 47.06 0.07 M0.31 53.63 C11.81 40.73, 24.38 26.64, 47.98 0.89 M1.18 61.37 C16.61 45.85, 26.33 27.02, 54.17 0.56 M2.27 59.92 C17.05 41.39, 33.17 23.68, 52.44 0.31 M8.8 59.19 C18.49 44.21, 30.71 34.71, 58.57 0.51 M7.96 58.28 C20.32 42.86, 33.65 27.13, 57.16 1.09 M13.62 59.01 C29.91 39.27, 47.62 18.16, 63.92 1 M11.26 58.64 C24.88 44.92, 38.5 28.48, 64.19 -1.04 M17.51 58.73 C39.64 34.74, 56.59 13.91, 68.91 -0.38 M17.64 59.85 C30.48 45.31, 43.83 29.69, 68.31 0.77 M23.32 58.77 C35.81 46.64, 45.6 32.25, 73.73 -0.8 M22.31 58.81 C41.1 37.75, 60.31 15.11, 73.71 -1 M29.45 58.74 C40.86 43.98, 52.05 29.82, 80.08 0.56 M28.84 59.13 C43.12 41.37, 58.73 24.15, 80.04 0.5 M33.78 58.3 C43.63 47.26, 55.41 31.37, 85.67 -0.74 M33.29 59.74 C45.99 44.29, 58.2 30.19, 85.09 -0.99 M40.2 57.81 C56.17 39.1, 71.36 20.12, 88.2 -1.63 M38.86 59.48 C51.34 44.67, 64.41 29.1, 90.9 -0.11 M42.61 59.15 C52.75 47.5, 65.2 32.97, 95.9 1.17 M43.99 59.8 C54.82 46.4, 65.35 33.68, 96.36 0.64 M51.43 58.42 C68.99 38.62, 88.95 13.3, 99.5 -0.04 M48.99 59.3 C61.53 45.4, 73.88 31.66, 101.37 -0.37 M53.56 58.73 C67.26 41.08, 81.89 26.22, 106.74 0.76 M54.16 58.42 C70.83 40.91, 85.68 22.04, 105.46 0.62 M58.29 59.66 C75.36 42.11, 94.02 23.25, 110.36 0.11 M59.77 58.79 C71.58 45.43, 85.03 31.97, 111.88 -0.54 M64.5 58.31 C80.24 41.25, 98.48 20.41, 117.97 -1.48 M65.46 60.1 C77.03 43.99, 89.51 30.76, 115.63 -0.54 M72.02 58.26 C83.59 43.05, 101.24 23.13, 123.28 1.5 M69.65 59 C81.59 46.84, 94.66 32.47, 122.79 0.21 M75.42 59.07 C94.49 37.86, 116.31 13.2, 125.45 0.55 M75.51 58.41 C89.9 43.52, 103.32 26.32, 126.01 0.51 M80.03 61.07 C92.79 46.59, 102.23 33.15, 130.87 -1.35 M81.07 60.25 C93.22 44.74, 105.08 29.78, 132.41 -0.27 M84.44 58.04 C106.72 34.53, 127.45 12.84, 137.2 -0.95 M85.86 59.96 C103.05 41.05, 119.04 20.92, 137.73 0.43 M92.5 58.06 C100.83 47.71, 113.12 32.08, 143.87 -2.02 M91.04 59.2 C101.77 46.83, 113.23 32.87, 142.96 -1.04 M95.81 60.14 C117.22 39.18, 133.7 16.29, 148.04 1.4 M96 58.43 C109.8 43.88, 123.7 29.79, 148.48 0.17 M101.73 59.08 C113.55 46.59, 123.37 36.25, 155.16 1.77 M102.52 59.57 C112.01 46.95, 123.03 34.54, 154.63 -0.09 M107.89 58.15 C125.12 37.01, 147.33 14.13, 158.9 -1.19 M107.35 58.58 C118.78 46.87, 129.32 33.72, 157.91 -0.23 M114.16 57.86 C129.56 42.78, 141.17 25.73, 163.72 0.2 M112.4 60.14 C133.38 37.14, 152.57 13.42, 163.53 -0.38 M117.18 60.73 C134.37 43.24, 146.91 27.11, 168.83 -1.62 M117.28 58.22 C132.15 41.89, 146.64 26, 169.6 0.31 M122.34 60 C141.03 38.06, 161.66 15.16, 174.69 -0.72 M123.51 58.75 C144.53 35.38, 165.54 11.55, 175.7 0.23 M130.3 60.42 C145.86 42.82, 160.07 22.55, 179.02 -0.91 M129.08 58.21 C139.83 47.65, 149.14 36.08, 179.06 -0.04 M132.96 58.97 C147.72 40.44, 163.21 21.78, 187.3 0.95 M134.62 60.29 C144.75 45.97, 156.19 33.02, 185.14 -1.09 M139.99 57.63 C153.91 40.54, 171.11 23.5, 188.76 -0.22 M139.99 58.49 C153.61 43.58, 168.09 28.3, 189.76 -0.08 M142.82 60.12 C154.09 47.33, 166.94 36.66, 194.91 -1.02 M144.43 58.74 C161.12 38.59, 178.76 19.11, 195.76 -0.09 M149.12 60.65 C167.06 40.66, 184.45 21.09, 199.5 -0.81 M149.18 58.06 C162.83 43.72, 177.01 28.69, 201.09 0.48 M154.85 60.68 C173.77 36.47, 193.17 15.67, 205.04 -0.97 M155.6 59.13 C172.8 38.65, 189.26 20.12, 207.43 0.55 M162.69 57.64 C179.05 38.78, 197.39 18.15, 210.79 -0.1 M159.78 58.97 C173.64 44.58, 185.92 29.73, 212.37 0.98 M166.11 57.74 C176.85 47.54, 188.9 32.66, 219.29 -1.35 M166.7 59.55 C180.36 40.97, 195.35 25.57, 217.96 -0.81 M171.16 61.4 C184.43 43.04, 197.64 29.98, 224.31 0.4 M170.16 59.12 C182.88 45.36, 194.89 29.89, 222.88 -0.19 M175.78 60.28 C193.22 42.92, 208.45 24.98, 229.41 -0.76 M176.24 59.14 C186.68 47.46, 198.12 33.69, 229.07 -0.73 M181.08 58.32 C192.81 47.7, 207.64 31.47, 231.87 -0.97 M180.64 59.16 C198.33 39.71, 215.98 20.37, 233.83 0.45 M185.16 61.16 C197.98 46.17, 209.4 35.32, 236.61 -1.15 M186.7 60.13 C207.81 35.61, 227.5 12.29, 237.79 0.04 M191.16 60.95 C206.23 41.55, 220.25 27.46, 243.4 -1.97 M191.48 59.1 C209.08 40.01, 225.75 20.01, 244.35 -0.57 M197.7 61.08 C207.64 45.79, 217.93 35.53, 250.2 1.13 M198.45 59.79 C209.57 44.73, 223.68 29.31, 249.04 -0.44 M202.91 60.95 C213.49 49.26, 224.19 35.25, 254.95 -0.52 M203.54 59.25 C219.35 39.34, 237.66 18.28, 253.53 0.32 M206.94 60.66 C229.01 36.11, 247.33 12.07, 259.63 -0.13 M207.83 58.46 C223.15 41.97, 238.48 23.81, 259.71 1.19 M211.95 57.85 C234.47 34.81, 254.04 12.04, 264.71 1.36 M213.62 58.99 C224.47 47.91, 235.05 35.33, 264.38 -0.2 M220.57 60.37 C237.82 38.09, 255.24 17.79, 269.17 -0.01 M219.11 59.56 C239.17 37.64, 257.81 14.7, 269.3 0.62 M224 59.08 C238.4 43.26, 249.56 28.12, 276.99 1.53 M224.47 58.74 C236.44 45.16, 248.14 32.33, 275.87 -0.43 M228.4 60.56 C248.49 39.53, 264.34 21.37, 281.17 -1.73 M230.5 59.53 C249.31 36.4, 268.07 14.97, 281.22 0.61 M234.95 59.91 C253.43 37.32, 271.32 16.23, 286.21 1.7 M234.74 60.01 C247.2 45.58, 259.52 30.94, 286.88 0.41 M238.35 57.45 C261.93 38.41, 281.28 13.86, 292.13 -0.64 M240.13 59.92 C258.21 38.11, 276.02 18.59, 290.85 0.95 M246.79 59.51 C259.88 43.57, 275.88 25.01, 296.94 -0.51 M245.07 59.35 C264.98 35.94, 283.93 14.84, 296.25 0.16 M252.48 59.14 C268.82 40.67, 283.88 22.37, 300.67 -0.18 M250.09 59.31 C263.65 45.77, 274.83 32.16, 301.47 0.53 M255.64 60.92 C269.13 46.15, 277.66 33.23, 307.85 0.35 M255.99 58.39 C269.95 42.93, 286.48 25.06, 306.74 -0.27 M262.98 57.61 C278.66 39.02, 296.97 17.63, 311.52 0.06 M262.4 59.35 C275.57 42.77, 291.44 24.64, 312.32 -0.73 M267.74 59.04 C280.11 40.45, 298.3 23.29, 319.75 1.65 M265.99 59.81 C282.49 39.64, 301.08 18.97, 319.07 -0.92 M272.15 60.71 C285.65 40.97, 301.28 25.07, 323.57 0.35 M273.02 58.77 C286.11 44.23, 297.75 29.78, 322.59 0.17 M275.45 60.67 C294.58 39.01, 309.19 22.97, 327.57 0.6 M277.5 59.35 C294.55 38.25, 313.6 18.4, 329.87 -0.76 M284.42 60.16 C301.18 37.72, 322.88 14.65, 333.81 0.86 M281.83 59.34 C301.79 37.86, 321.95 14.17, 333.38 -0.7 M289.29 60.46 C306.98 37.76, 326.87 11.97, 340.37 -1.69 M286.89 59.84 C304.37 39.99, 319.75 21.93, 339.73 0.3 M293.69 60.31 C313.42 36.9, 332.06 16.38, 345.35 1.63 M292.02 58.65 C305.78 43.38, 317.54 28.99, 343.75 -0.23 M297.86 60.96 C310.87 43.06, 325.68 28.8, 348.68 0.5 M298.44 59.13 C312.67 41.59, 327.01 25.52, 348.5 0.16 M301.96 59.14 C317.46 43.1, 331.17 26.71, 355.44 -1.43 M302.66 59.1 C321.66 38.98, 338.36 19.1, 354.67 -0.23 M307.9 60.57 C324.1 41.04, 339.6 23.83, 359.11 -1.49 M308.41 60.17 C321.51 46.23, 331.95 32.5, 359.97 -0.45 M315.37 60.74 C327.94 43.77, 340.94 28.54, 367.44 -0.53 M314.8 60.41 C334.63 36, 354.75 12.89, 365.08 0.54 M320.3 57.59 C330.22 46.49, 340.44 32.64, 370.44 1.84 M318.95 58.95 C333.32 43.98, 346.32 29.5, 369.85 0.48 M322.87 60.34 C339.93 40.03, 355.57 22.99, 374.86 -0.01 M324.09 58.61 C342.58 40.43, 358.99 19.34, 375.84 0.4 M330.03 58.17 C348.89 36.78, 366.79 18.19, 380.23 -0.94 M330.19 58.53 C346.37 39.8, 363.15 21.32, 380.49 -0.7 M335.5 61.04 C346.07 45.22, 360.19 31.69, 385.31 -0.34 M336.11 58.79 C352.46 38.66, 370.32 19.6, 387.75 0.72 M342.23 60.35 C353.21 44.68, 365.4 34.26, 392.15 -1.33 M340.18 59.03 C359.64 37.64, 375.38 19.28, 392.16 -0.58 M346.45 57.81 C364.49 37.16, 384.15 17.39, 396.53 -2.09 M346.37 59.1 C360.38 42.07, 375.88 25.31, 397.54 -0.06 M352.13 58.05 C368.61 36.35, 386.21 17.56, 404.02 1 M350.9 59.64 C367.98 40.76, 383.25 21.74, 403.06 -0.71 M355.02 57.5 C370.21 44.64, 383.92 25.83, 408.4 -1.99 M356.34 58.76 C367.9 47.27, 377.79 35, 407.89 -0.46 M361.11 57.05 C374.54 47.15, 385.68 33.21, 411.76 -1.72 M362.27 58.6 C378.85 39.69, 395.04 20.1, 413.32 0.45 M366.65 58.85 C384.87 39.09, 399.72 22.1, 418.91 -0.87 M367.4 60.04 C387.26 36.05, 408.71 12.13, 419.41 0.09 M372.65 59.02 C390.34 37.73, 411.03 17.14, 425.43 -1.38 M372.16 59.23 C383.81 46.77, 394.13 34.86, 423.05 -0.52 M376.89 60.44 C390.58 42.95, 404.82 30.42, 428.17 0.3 M376.89 60.29 C392.34 44.11, 406.63 27.35, 428.65 -0.79 M384.38 57.48 C393.81 42.99, 408.43 30.75, 433.22 1.99 M382.38 59.89 C397.13 44.1, 410.47 28.44, 434.24 0.05 M387.42 60.76 C396.94 47.1, 408.4 36.01, 438.44 0.45 M388.07 59.91 C405.53 37.69, 423.37 17.88, 440.1 -0.41 M392.04 57.86 C411.83 39.21, 431.98 14.32, 445.43 0.23 M394.65 58.03 C410.98 39.31, 428.66 17.89, 444.87 0.86 M398.05 58.14 C414.33 41.68, 432.09 23.67, 450.08 -1.66 M398.16 58.37 C412.86 44.89, 426.09 28.13, 450.19 -1.03 M404.85 58.19 C414.4 47.32, 427.58 31.86, 454.5 1.07 M403.99 58.88 C420.95 38.91, 440.4 18.62, 454.82 -0.3 M410.72 58.83 C427.15 39, 442.48 20.64, 461.58 0.66 M410.29 60.2 C426.57 39.12, 444.74 17.68, 461.27 0.16 M416.11 58.13 C427.82 41.02, 443.85 26.1, 466.97 0.11 M415.34 60.51 C432.04 39.11, 449.56 20.29, 465.92 -0.59 M421.47 60.91 C438.25 37.99, 452.81 21.55, 472.91 -1.32 M419.55 58.97 C431.15 45.02, 443.42 32.87, 470.99 -0.21 M423.28 59.47 C436.93 46.15, 446.99 35.05, 475.53 0.83 M425.58 60.29 C438.78 44.73, 449.33 31.92, 477.94 -0.12 M432.5 58.36 C445.26 42.05, 457.06 24.96, 480.12 1.31 M430.95 59.36 C446.07 43, 460.26 25.24, 482.9 1.29 M434.61 59.12 C450.05 42.64, 465.22 23.71, 486.99 -1.42 M436.2 59.91 C452.76 41.4, 467.67 23.34, 488.59 0.09 M440.1 61.03 C455.64 43.76, 468.4 27.97, 491.44 -0.4 M441.46 59.07 C458.43 39.04, 475.01 19.77, 492.52 -0.6 M448.46 57.87 C464.73 39.6, 482.9 18.44, 498.28 0.57 M446.62 60.1 C461.15 41.65, 478.49 22.73, 497.52 0.06 M450.71 58.64 C462.13 46.52, 474.89 34.39, 501.84 -0.3 M451.95 58.89 C470.52 38.05, 488.26 17.87, 503.95 1.19 M457.34 60.37 C469.26 45.37, 486.87 25.24, 508.45 -2.09 M456.21 58.68 C472.16 43.37, 486.65 25.36, 508.3 -1.12 M460.88 60.8 C483.32 37.07, 502.06 12.78, 511.14 1.16 M463.28 58.65 C472.8 47.34, 483.7 35.21, 511.95 2.29 M467.86 59.18 C480.99 45.09, 495.29 29.78, 511.48 9.88 M468.27 58.53 C478.23 47.3, 488.7 36.85, 513.23 9.01 M473.3 60.98 C484.12 44.66, 498.63 31.84, 514.06 15.71 M474.2 59.25 C483.95 46.54, 494.89 34.58, 511.96 13.69 M476.76 58.7 C486.01 52.01, 494.28 41.23, 510.59 18.8 M478.04 59.57 C491.23 44.17, 504.07 29.05, 511.71 21.14 M484.78 60.53 C490.08 51.14, 501.17 42.57, 510.45 25.06 M483.41 58.67 C490.82 51.82, 497.03 44.11, 512.41 27.56 M490.92 59.21 C496.76 49.05, 502.99 41.53, 514.52 31.61 M488.68 58.81 C497.19 49.85, 506.02 39.52, 512.41 31.77 M494.24 60.67 C502.27 53.59, 507.31 44.46, 511.17 39.61 M495.58 59.93 C498.56 54.37, 502.49 49.21, 512.51 37.97 M499.34 60.8 C503.97 56.31, 504.18 51.51, 510.24 43.75 M499.34 60.25 C502.45 56.66, 505.23 51.78, 512.01 45 M506.08 58.7 C508.05 55.43, 509.38 52.55, 513.22 49.7 M505.26 59.04 C508.28 55.93, 511.24 51.98, 512.24 51" stroke="#ffc9c9" stroke-width="0.5" fill="none"></path><path d="M-0.3 -0.21 C126.06 -2.33, 251.57 -1.66, 509.38 0.1 M0.26 0.34 C139.56 -1.58, 278.66 -0.99, 509.76 -0.09 M511.62 -0.67 C509.42 22.39, 508.51 46.44, 511.8 58.21 M510.71 0.67 C509.1 14.24, 509 27.86, 510.26 58.95 M509.83 57.76 C337.05 58.66, 165.32 57.68, 0.09 58.67 M509.99 58.35 C353 59.66, 195.25 60.15, -0.17 58.04 M-1.92 56.98 C-1.9 35.61, -1.51 18.95, 0.57 -1.92 M-0.23 58.52 C0.41 36.19, -0.64 15.11, -0.62 0.53" stroke="#1e1e1e" stroke-width="1" fill="none"></path></g><g transform="translate(255.9710112481024 160.33145659788374) rotate(0 78.94991302490234 12.5)"><text x="78.94991302490234" y="0" font-family="Virgil, Segoe UI Emoji" font-size="20px" fill="#1e1e1e" text-anchor="middle" style="white-space: pre;" direction="ltr" dominant-baseline="text-before-edge">Start Container</text></g><g stroke-linecap="round"><g transform="translate(14.379641964162033 204.14159557092057) rotate(0 308.2298001024852 -0.317414208560308)"><path d="M-0.62 0.1 C161.06 -0.51, 323.07 -0.58, 617.08 0.57 M-0.24 -0.09 C141.04 -1.61, 281.62 -1.51, 616.27 -0.18" stroke="#1e1e1e" stroke-width="1" fill="none"></path></g><g transform="translate(14.379641964162033 204.14159557092057) rotate(0 308.2298001024852 -0.317414208560308)"><path d="M586.5 10.24 C594.86 8.68, 604.05 5.86, 617.96 1.24 M587.44 9.77 C595.42 8.03, 601.66 5.94, 615.94 -0.64" stroke="#1e1e1e" stroke-width="1" fill="none"></path></g><g transform="translate(14.379641964162033 204.14159557092057) rotate(0 308.2298001024852 -0.317414208560308)"><path d="M586.57 -10.28 C594.98 -6.48, 604.15 -3.92, 617.96 1.24 M587.51 -10.75 C595.52 -7.81, 601.75 -5.21, 615.94 -0.64" stroke="#1e1e1e" stroke-width="1" fill="none"></path></g></g><mask></mask><g transform="translate(541.4912367730047 218.33536284788374) rotate(0 19.639976501464844 12.5)"><text x="0" y="0" font-family="Virgil, Segoe UI Emoji" font-size="20px" fill="#1e1e1e" text-anchor="start" style="white-space: pre;" direction="ltr" dominant-baseline="text-before-edge">time</text></g><g stroke-linecap="round" transform="translate(12.560718575736587 25.36708866432309) rotate(0 31.5 29)"><path d="M0 0 C0 0, 0 0, 0 0 M0 0 C0 0, 0 0, 0 0 M-0.71 5.85 C1.44 5.07, 2.87 3.44, 5.67 0.56 M-0.18 6.26 C1.12 4.4, 2.99 3.19, 4.76 0.17 M1.15 12.93 C3.83 8.44, 5.28 5.36, 12.08 -1.47 M0 12.74 C4.42 8.52, 6.74 4.19, 10.54 -0.1 M0.52 19.27 C2.69 15.34, 6.6 7.72, 16.66 -0.47 M-0.96 17.73 C5.56 11.79, 9.37 6.31, 16.28 0.35 M1.32 25.04 C7.48 16.01, 18.6 3.78, 23.13 -1.94 M1.05 24.81 C6.25 18.8, 11.4 12.69, 21.71 -0.39 M1.81 30.78 C7.95 20.6, 15.16 12.92, 25.03 0.78 M0.47 29.85 C6.83 21.23, 15 12.99, 27 -0.29 M-0.07 35.43 C8.2 25.24, 15.24 16.02, 32.88 -0.2 M-0.46 36.07 C9.75 24.32, 20.83 12.96, 32.38 -0.2 M-1.64 44.06 C7.32 33.43, 14.11 25.63, 36.08 -0.34 M0.96 41.76 C8.77 32.2, 18.3 20.72, 37.56 -0.46 M1.32 47.39 C14.94 32.49, 28.8 12.68, 42.9 0.5 M0.51 48.02 C11.36 35.89, 22.05 23.51, 41.55 0.47 M1.88 53.74 C11.35 41.08, 23.88 27.2, 45.98 1.36 M0.29 54.77 C11.06 44.27, 19.54 32.19, 48.04 -0.63 M0.81 58.83 C18.35 43.46, 33.16 23.23, 54.31 -0.6 M1.41 58.69 C20.03 39.54, 37.99 18.32, 53.3 -0.37 M6.55 61 C21.76 41.05, 37.9 20.87, 58.76 1.18 M7.85 58.55 C21.86 42.01, 34.75 26.73, 57.55 0.65 M12.82 57.52 C32.89 36.08, 51.43 16.23, 63.41 -1.37 M11.99 59.71 C24.99 41.6, 39.85 25.78, 62.14 -0.05 M17.19 59.74 C27.68 44.98, 37.97 32.13, 65.09 6.59 M16.94 59.32 C27.23 48.45, 36.76 38.11, 63.03 6.82 M22.57 60.93 C30.96 47.22, 42.69 37.56, 61.88 12.24 M22 60.3 C35.35 44.57, 49.89 28.65, 63.1 11.86 M29.24 59.47 C39.44 42.55, 53.14 26.55, 64.75 17.16 M28.57 58.7 C40.66 44.68, 50.99 32.6, 63.72 19.2 M32.35 58.14 C39.04 52.32, 49.82 40.3, 64.28 26.55 M33.45 59.05 C44.65 45.87, 54.64 33.47, 63.29 23.84 M37.91 59.33 C46.86 48.14, 54.42 40.38, 62 29.27 M38.77 59.75 C47.86 48.31, 55.66 38.57, 62.53 31.78 M44.32 60.32 C49.93 53.14, 51.49 50.42, 63.2 37.29 M43.38 58.46 C49.95 52.3, 55.7 46.4, 63.06 37.63 M50.31 60.54 C52.68 53.13, 55.3 50.05, 61.69 41.23 M48.65 59.45 C51.46 55.55, 55.64 53.12, 64.14 42.26 M53.1 60.33 C56.01 54.88, 59.18 53.63, 63.29 49.84 M54.08 59.08 C58.11 55.91, 61.46 52.35, 63.77 48.84 M59.85 59.52 C61.65 57.5, 62.56 55.73, 63.15 55.29 M59.53 59.59 C60.18 58.85, 61.31 57.61, 63.68 54.94" stroke="#b2f2bb" stroke-width="0.5" fill="none"></path><path d="M0.23 -1.56 C23.71 0.63, 45.98 0.04, 64.86 -1.85 M-0.12 -0.19 C23.37 0.76, 45.87 -0.59, 63.64 -0.16 M64.55 -1.28 C62.08 19.67, 62.24 36.96, 63.45 59.24 M62.78 -0.12 C63.42 17.9, 62.51 36, 63.85 58.6 M62.96 57.1 C40.35 56.44, 15.02 57.46, 1.35 56.02 M63.47 57.41 C44.23 58.63, 24.93 56.9, 0.35 57.19 M0.55 57.34 C-1.15 44.4, 1.52 28.7, 0.35 -0.55 M-0.05 57.01 C-0.05 40.42, 0.67 22.22, -0.89 0.3" stroke="#1e1e1e" stroke-width="1" fill="none"></path></g><g transform="translate(22.320735970756118 41.86708866432309) rotate(0 21.73998260498047 12.5)"><text x="21.73998260498047" y="0" font-family="Virgil, Segoe UI Emoji" font-size="20px" fill="#1e1e1e" text-anchor="middle" style="white-space: pre;" direction="ltr" dominant-baseline="text-before-edge">TOC</text></g><g stroke-linecap="round"><g transform="translate(11.508687861263752 202.875657312572) rotate(0 -0.6377652902156115 -96.07027712278068)"><path d="M0.02 -0.65 C0.25 -51.74, 0.55 -105.68, -1.51 -192.88 M0.23 0.74 C-0.72 -63.54, -0.48 -128.9, -0.65 -191.5" stroke="#1e1e1e" stroke-width="1" fill="none"></path></g></g><mask></mask></svg>