<svg version="1.1" xmlns="http://www.w3.org/2000/svg" viewBox="0 0 857.599609375 383.0546875" width="1715.19921875" height="766.109375" filter="invert(93%) hue-rotate(180deg)">
  <!-- svg-source:excalidraw -->
  
  <defs>
    <style class="style-fonts">
      @font-face {
        font-family: "Virgil";
        src: url("https://excalidraw.com/Virgil.woff2");
      }
      @font-face {
        font-family: "Cascadia";
        src: url("https://excalidraw.com/Cascadia.woff2");
      }
    </style>
    
  </defs>
  <rect x="0" y="0" width="857.599609375" height="383.0546875" fill="#ffffff"></rect><g stroke-linecap="round" transform="translate(10 10) rotate(0 189.216796875 181.52734375)"><path d="M-0.19 0.37 C85.78 1.92, 171.3 2.53, 377.84 0.91 M0.43 0.14 C147.31 1.61, 295.4 1.41, 378.4 0.38 M377.33 0.74 C380.06 138.47, 378.28 279.95, 377.7 362.2 M378.22 0.57 C376.73 99.67, 376.49 199.67, 378.05 362.45 M377.53 363.98 C266.1 362.94, 154.83 361.84, 0.1 363.49 M377.98 363.46 C238.44 361.5, 97.23 361.96, -0.06 363.55 M-1.16 362.08 C-1.86 269.81, -0.9 175.58, 0.76 0.12 M0.5 362.69 C-1.65 248.34, -2.24 132.91, 0.15 -0.39" stroke="#1e1e1e" stroke-width="1" fill="none"></path></g><g transform="translate(27.328125 22.97265625) rotate(0 42.599952697753906 12.5)"><text x="0" y="0" font-family="Virgil, Segoe UI Emoji" font-size="20px" fill="#1e1e1e" text-anchor="start" style="white-space: pre;" direction="ltr" dominant-baseline="text-before-edge">Manifest</text></g><g stroke-linecap="round" transform="translate(26.01953125 107.921875) rotate(0 174.767578125 125.3984375)"><path d="M-0.98 0.87 C130.98 1.4, 259.32 2.4, 349.41 1.07 M-0.6 -0.5 C89.75 1.26, 180.61 1.07, 349.93 0.06 M350.82 -0.95 C352.92 81.26, 351.38 160.7, 349.93 249.79 M349.35 -0.33 C348.79 69.33, 349.14 139.35, 349.52 251.08 M348.85 251.65 C233.27 251.64, 114.2 250.27, -0.72 249.89 M349.17 250.86 C211.49 250.75, 74.47 251.61, -0.13 250.78 M-0.44 250.88 C-0.92 176.05, 0.29 105.37, 0.27 1.62 M-0.2 251.6 C-0.03 196.46, 0.03 141.98, 0.69 0.12" stroke="#1e1e1e" stroke-width="1" fill="none"></path></g><g transform="translate(41.83203125 116.02734375) rotate(0 32.549964904785156 12.5)"><text x="0" y="0" font-family="Virgil, Segoe UI Emoji" font-size="20px" fill="#1e1e1e" text-anchor="start" style="white-space: pre;" direction="ltr" dominant-baseline="text-before-edge">Layers</text></g><g stroke-linecap="round" transform="translate(27.92578125 53.921875) rotate(0 173.98046875 22.74609375)"><path d="M1.29 -0.02 C105.15 0.62, 210.07 1.64, 348.15 0.77 M0.08 -0.51 C74.27 -2.02, 147.97 -1.38, 347.5 -0.15 M347.7 -1.45 C347.33 12.72, 346.93 22.49, 347.64 45.04 M348.74 0.67 C348.84 12.45, 348.19 24.47, 348.08 45.94 M346.79 45.18 C276.69 46.85, 208.62 46.19, -1.16 44.46 M348 45.08 C230.02 45.8, 113.32 44.59, -0.61 46.05 M-1.68 44.03 C-0.58 27.94, 0.52 13.9, 1.06 -0.87 M0.63 44.84 C0.33 33.72, -0.54 23.11, 0.06 -0.13" stroke="#1e1e1e" stroke-width="1" fill="none"></path></g><g transform="translate(40.1953125 64.4140625) rotate(0 28.70996856689453 12.5)"><text x="0" y="0" font-family="Virgil, Segoe UI Emoji" font-size="20px" fill="#1e1e1e" text-anchor="start" style="white-space: pre;" direction="ltr" dominant-baseline="text-before-edge">Config</text></g><g stroke-linecap="round" transform="translate(35.734375 143.62890625) rotate(0 165.546875 20.0390625)"><path d="M0 0 C0 0, 0 0, 0 0 M0 0 C0 0, 0 0, 0 0 M-0.45 6.52 C1.06 4.14, 3.31 1.14, 4.36 -0.36 M-0.2 6.08 C0.95 4.25, 2.42 2.74, 4.73 0.33 M1.73 10.68 C2.36 8.69, 5.68 6.49, 10.62 -1.17 M-0.3 11.28 C3.71 8.04, 7.32 3.69, 10.23 -0.13 M0.58 19.67 C2.59 12.09, 10.58 8.6, 14.61 -0.24 M0.1 17.8 C2.72 14.22, 6.91 8.94, 15.08 1.13 M0.63 24.73 C8.47 16.61, 17.39 4.62, 19.36 -1.6 M0.16 23.12 C7.59 15.8, 16.01 5.94, 20.67 -0.26 M-0.2 31.52 C3.54 24.7, 11.42 18.01, 27.56 -0.58 M-0.96 29.81 C7.6 20.67, 16.48 11.41, 27.24 0.28 M0.93 35.54 C7.47 26.16, 15.91 14.62, 31.18 1.24 M0.46 37.28 C10.42 23.95, 22.15 9.79, 32.64 0.87 M0.84 41.27 C16.05 25.08, 29.09 10.35, 35.44 0.54 M1.33 41.01 C13.29 28.48, 23.38 15.95, 36.33 -0.13 M5.56 43.19 C16.54 29.37, 26.61 19.18, 41.33 0.97 M7.13 41.43 C17.7 29.39, 27.26 17.26, 42.03 0.42 M12.32 40.3 C20.76 31.24, 26.71 23.18, 45.58 1.95 M12.07 40.29 C22.56 29.58, 32.09 17.5, 47.81 1.12 M16.06 40.81 C28.74 31.09, 36.9 20.01, 51.18 -0.63 M17.61 41.29 C26.44 32.23, 35 21.68, 52.76 0.63 M23.94 39.44 C36.53 23.6, 49.65 9.7, 59.4 -1.61 M23.25 41.19 C35.66 25.52, 49.74 7.86, 59.07 0.32 M27.41 42.15 C37.48 28.14, 48.4 16.16, 64.23 -1.88 M28.59 40.44 C34.31 33.07, 42.3 24.74, 64.7 -1.17 M32.68 42.88 C42.86 30.03, 55.3 13.95, 68.45 0.45 M33.98 41.79 C45.98 27.55, 58.03 12.12, 69.45 0.79 M36.69 40.31 C50.1 28.7, 60.08 15.86, 74.09 -1.26 M38.65 40.95 C47.65 29.35, 59.16 18.23, 73.65 -0.63 M45.66 42.63 C53.11 31.11, 59.04 24.34, 78.42 -1.4 M43.32 41.2 C55.97 26.3, 67.66 14.11, 80.21 0.94 M47.06 40.26 C57.78 31.38, 69.75 17.72, 84.5 -1.36 M48.33 41.99 C57.84 30.82, 66.03 20.45, 85.34 -0.31 M56.12 42.61 C66.05 29.69, 73.41 19.8, 89.12 -0.79 M54.25 41.61 C63.63 30.45, 74.5 19.7, 90.57 0.24 M59.84 42.85 C70.83 26.91, 82.1 12.76, 97.34 -0.88 M60.06 41.77 C67.59 32.47, 73.75 24.2, 95.45 0.29 M62.79 43.37 C75.43 27.45, 91.77 14.37, 102.48 0.48 M65.05 41.01 C75.73 26.68, 88.23 14.02, 101.65 -0.78 M70.45 40.81 C80.96 27.97, 91.8 18.47, 104.6 1.34 M70.25 41.56 C84.26 24.85, 97.6 9.46, 105.59 -1.27 M76.46 43.06 C83.97 31.69, 91.47 24.87, 110.55 0.53 M75.87 42.22 C84.02 31.17, 93.33 20.63, 110.55 -0.53 M80.46 42.74 C89.23 33.06, 97.71 22.33, 115.74 -0.91 M81.23 41.71 C90.78 30.35, 99.28 19.02, 116.65 0.39 M84.1 41.97 C92.99 31.67, 102.47 20.75, 123.51 1.32 M84.88 41.35 C94.55 30.78, 105.29 20.22, 122.28 -0.36 M89.54 41.1 C104.23 24.89, 117.56 11.55, 128.32 -0.23 M91.26 41.63 C101.59 27.84, 113.16 15.98, 127.44 -0.56 M95.45 39.51 C105.74 30.62, 118.62 18.77, 133.67 0.71 M96.8 40.85 C104.34 31.4, 113.85 20.89, 131.8 -0.55 M103.5 40.26 C114.89 24.8, 127.39 9.34, 136.06 0.92 M102.55 41.76 C109.32 32.11, 118.39 22.6, 136.73 -0.61 M106.39 42.96 C117.33 31.61, 128.58 19.54, 143.47 0.41 M106.31 42.2 C115.57 30.47, 125.7 19.89, 144 -0.33 M114.28 40.43 C120.45 32.36, 127.68 20.86, 147.44 -0.79 M113.25 41.66 C121.1 30.46, 130.8 20.72, 147.86 0.04 M118.89 39.5 C125.96 33.15, 131.94 23.34, 153.46 -1.96 M118.03 41.97 C125.65 31.44, 135.39 22.38, 153.71 0.15 M123.93 41.72 C131.14 31.15, 136.8 23.36, 157.08 -0.83 M123.43 41.9 C133.62 28.1, 145.37 16.09, 158.16 0.26 M129.1 40.16 C136.05 31.06, 145.43 19.71, 166.33 -0.94 M128.49 41.78 C135.47 32.03, 144.78 21.36, 163.71 -0.21 M132.63 40.1 C143.51 28.31, 156.08 18.12, 169.74 1.21 M133.12 40.14 C144.67 28.91, 152.86 18.93, 168.84 -0.01 M139.24 39.84 C154.38 27.43, 164.75 9.03, 174.87 0.83 M138.2 40.32 C152.53 25.67, 166.19 9.16, 174.69 0.55 M142.68 39.42 C156.57 30.15, 166.03 13.93, 180.27 1.63 M144.26 41.1 C155.56 28.24, 164.42 16.45, 179.1 0.23 M149.7 41.35 C159.49 29.55, 173.9 13.46, 186.02 0.56 M149.57 41.33 C161.17 26.26, 174.94 13.02, 185.3 -0.53 M154.53 39.4 C165.88 30.72, 174.58 19.44, 189.68 0.58 M154.77 40.54 C163.63 32.83, 170.78 23.24, 190.03 1.03 M158.95 39.33 C169.16 30.42, 178.31 20.5, 196.83 -0.64 M160.97 41.61 C171.27 29.34, 180.17 18.86, 196.13 0.63 M166.72 39.64 C177.1 28.31, 190.62 11.68, 201.07 -1.9 M166.45 41.33 C172.58 33.6, 179.92 23.56, 200.69 -0.47 M171.63 40.33 C180.92 27.6, 194.98 14.48, 206.5 -1.79 M170.7 41.06 C179.64 31.19, 188.58 21.23, 207.69 -0.81 M175.29 40.38 C187.67 27.32, 200.66 14.05, 211.71 -1.89 M176.43 42.1 C186.76 27.21, 199.33 13, 212.07 -0.11 M182.47 42.76 C191.38 29.56, 197.27 19.49, 216.32 -2.05 M180.99 40.59 C189.66 30.52, 200.02 20.95, 218.43 -0.64 M188.35 43.45 C196.72 31.48, 207.02 18.23, 220.95 0.38 M185.73 42.33 C200.62 26.12, 215.61 9.64, 223.09 -0.62 M192.35 40.9 C205.86 24.03, 216.73 10.26, 229.72 -0.7 M192.02 40.2 C204.17 26.45, 217.69 10.89, 228.75 0.43 M198.17 40.83 C207.77 30.49, 216.11 17.01, 234.29 0.59 M197.34 40.78 C205.15 32.18, 214.11 20.08, 232.62 0.3 M204.25 40.92 C211.82 31.56, 217.77 23.97, 239.62 -0.38 M201.9 40.96 C214.67 27.94, 226.57 14.2, 238.33 -0.52 M207.81 39.62 C218.85 27.85, 233.21 13.8, 243.34 -1.73 M206.82 40.56 C218.6 29.73, 229.56 16.55, 243.44 0.01 M215.31 40.86 C227.34 26.89, 235.68 14.28, 246.99 1.89 M212.69 40.98 C223.21 27.73, 235.95 16.28, 248.75 0.41 M218.46 42.8 C226.4 31.14, 238.55 20.63, 253.86 0.82 M217.71 41.82 C227.31 30.59, 237.76 21.55, 254.31 -1.03 M224.76 42.62 C231.81 31.35, 238.59 23.42, 261 -0.81 M224.36 41.46 C232.49 30.04, 241.73 20.73, 259.55 0.45 M229.43 41.22 C240.3 26.85, 255.24 11.83, 265.72 -0.45 M229.46 41.76 C239.37 28.25, 250.52 16.25, 265.9 0.66 M233.97 39.99 C248.96 24.64, 262.43 11.19, 269.57 -0.25 M234.84 40.63 C245.23 29.19, 255.75 16.66, 270.88 1.11 M238.13 41.59 C247.84 34.46, 254.7 24.14, 276.89 1.61 M239.46 40.68 C252.38 26.5, 264.58 12.32, 274.81 -0.36 M246.43 42.65 C256.56 30.7, 265.48 18.63, 278.76 -0.31 M246 41.82 C254.02 31.47, 261.38 23.07, 280.83 1 M252.13 42.53 C263.55 26.64, 275.44 10.27, 287.52 -1.97 M251.04 41.91 C258.02 33.72, 265.36 23.88, 285.6 -0.47 M255.77 40.11 C266.19 31.11, 276.01 20.1, 292.75 -1.04 M255.64 41.38 C268.21 25.31, 282.64 10.55, 291.4 -0.24 M261.12 42.5 C274.46 28.28, 284.17 12.92, 295.83 -0.26 M261.48 41.85 C268.23 33.23, 276.79 23, 296.75 -0.97 M265.73 41.8 C274.36 29.78, 284.77 20.83, 301.85 1.42 M267.49 40.75 C279.31 26.01, 293.16 10.76, 302.56 0.11 M272.89 39.86 C282.73 30.42, 292.17 16.29, 306.2 1.51 M271.97 41.97 C286.28 24.66, 299.57 8.25, 306.7 -0.13 M278.17 41 C286.14 32.06, 293.98 23.6, 314.49 -1.2 M277.22 40.44 C287.94 26.44, 299.6 14.34, 312.19 -0.17 M281.38 40.82 C293.64 26.08, 309.58 10.82, 317.12 -1.98 M281.67 40.8 C292.43 28.8, 303.55 17.87, 317.79 -1.14 M289.1 38.88 C300.05 26.01, 311.07 14.15, 325.23 -1.32 M288.46 40 C299.35 27.88, 309.95 16.13, 324.14 -0.24 M294.65 39.5 C304.34 29.05, 311.76 16.57, 329.22 -0.22 M293.64 41.93 C303.96 28.25, 314.3 16.25, 328.34 -0.11 M295.97 41.23 C306.76 34.51, 313.08 25.75, 333.43 2.07 M298.09 40.81 C306.63 32.43, 314.53 23.82, 332.85 1.32 M302.88 41.86 C311.26 28.89, 320.72 19.16, 334.67 8.78 M302.92 42.01 C308.97 33.44, 315.78 26.06, 332.02 7.42 M308.35 43.44 C315.55 32.43, 328.15 19.51, 334.03 13.36 M308.91 41.03 C316.26 30.21, 326.51 20.57, 332.16 14.51 M314.37 41.75 C317.01 35.83, 323.12 32.94, 332.31 21.02 M314.46 40.76 C318.55 34.73, 324.06 29.91, 332.97 19.2 M319.94 43.06 C321.31 38.93, 325.13 33.48, 333.15 25.21 M319.7 42.19 C321.95 38.28, 325.45 33.47, 332.9 24.82 M324.01 40.97 C327.17 39.37, 329.25 36.64, 333.65 32.39 M324.96 41.01 C326.56 39.58, 328.38 37.26, 332.55 32.16 M330.06 41.28 C330.53 40.56, 331.37 39.38, 333.17 37.44 M329.7 41.61 C330.84 39.92, 332.28 38.52, 332.88 37.59" stroke="#b2f2bb" stroke-width="0.5" fill="none"></path><path d="M-0.98 0.44 C117.92 1.15, 235.62 0.19, 330.83 -0.17 M-0.1 0.2 C98.48 2.51, 196.67 1.66, 330.8 -0.27 M330.08 0.36 C330.57 15.06, 329.51 29.17, 331.6 38.73 M331.76 0.23 C330.7 7.87, 330.27 18.59, 332.08 39.79 M331.41 38.77 C243.43 38.4, 155.31 39.01, -0.9 39.7 M331.34 40.71 C219.26 37.57, 106.33 37.59, -0.19 40.29 M-0.26 41.7 C-1.6 30.82, 2.14 21.51, 0.59 0.36 M-0.57 39.16 C0.28 25.15, -0.26 9.08, -0.92 0.22" stroke="#1e1e1e" stroke-width="1" fill="none"></path></g><g stroke-linecap="round" transform="translate(36.8984375 193.3671875) rotate(0 165.546875 20.0390625)"><path d="M0 0 C0 0, 0 0, 0 0 M0 0 C0 0, 0 0, 0 0 M-0.64 6.93 C0.76 5.22, 2.72 2.51, 4.98 0.5 M-0.65 6.22 C1.72 4.57, 3.01 2.24, 4.75 0.45 M-1.33 12.24 C2.17 7.51, 5.1 6.66, 11.82 -0.25 M0.26 12.72 C4.49 7.11, 7.01 2.59, 11.26 0.01 M-1.34 19.98 C3.64 14.05, 6.77 8.94, 13.81 1.31 M-1.03 18.59 C3.37 14.64, 6.95 10.55, 15.91 0.55 M-1.7 24.38 C5.36 18.57, 15.22 9.54, 20.91 0.59 M-0.35 23.9 C4.96 16.86, 11.31 11.62, 21.86 0.01 M-1.73 31.77 C8.38 18.45, 21.27 9.33, 27.64 0.5 M0.78 30.07 C9.17 20.63, 16.02 11.44, 26.41 0.97 M1.58 37.01 C6.39 29.65, 12.69 20, 31.6 -0.91 M-0.44 36.83 C9.83 25.6, 19.77 13.61, 31.78 0.12 M3.3 41.59 C14.52 26.08, 26.72 11.58, 35.25 0.85 M1.98 40.52 C9.99 30.75, 18.38 21.36, 36.64 -0.33 M7.32 41.17 C17.85 27.08, 29.15 18, 41.93 -0.17 M7.39 41.71 C14.81 32.68, 21.66 22.83, 41.97 0.66 M13.84 42.52 C21.03 32.59, 26.96 24.33, 49.31 -0.96 M11.96 40.41 C25.01 25.97, 39.78 8.91, 48.42 0.41 M15.38 42.82 C28.54 24.42, 44.63 11.69, 53.48 1.55 M16.42 41.34 C27.27 29.06, 39.44 14.93, 52.25 -0.15 M20.81 41.35 C29.19 33.31, 40 21.12, 58.36 1.88 M22.13 41.81 C32.95 28.29, 42.65 17.78, 58.62 0.91 M28.87 42.8 C37.87 28.69, 48.49 19.6, 63.75 1.12 M28.34 41.19 C38.59 29.28, 48.49 17.25, 63.53 -0.13 M32.18 40.46 C48.35 26.06, 57.99 9.97, 66.81 -1.71 M34.14 40.15 C43.92 28.22, 53.97 15.15, 69.17 0.8 M38.71 39.54 C47.27 32.42, 58.31 22, 74.07 1.52 M37.82 42.15 C48.77 30.24, 57.82 18.62, 73.79 -1.15 M43.8 40.34 C56.54 23.82, 71.35 10.01, 78.94 -0.66 M44.71 40.77 C50.4 32.84, 57.66 23.49, 79.08 -0.33 M47.67 41.59 C57.83 33.32, 64.69 24.58, 85.67 -0.11 M48.61 41.07 C61.07 25.79, 75.45 11.07, 84.04 -1.19 M55.4 39.61 C61.74 29.51, 71.31 21.88, 90.91 -1.79 M53.62 40.99 C67.77 27.67, 79.53 13.52, 90.39 1.04 M58.43 39.64 C71.24 28.33, 85.9 11.53, 95.66 -0.53 M59.53 40.71 C68.34 32.07, 76.36 21.78, 96.38 -0.24 M65.92 39.77 C76.65 27.17, 84.86 14.58, 98.77 -1.79 M65.05 40.79 C73.3 31.63, 80.89 22.04, 100.24 0.36 M69.52 42.49 C83.26 26.44, 96.49 7.59, 104.99 1.61 M70.45 41.78 C78.68 31.62, 86.17 21.67, 105.97 -0.39 M76.15 42.18 C87.36 25.78, 102.34 10.82, 110.43 0.76 M74.22 41.84 C83.46 31.53, 93.91 21.92, 110.8 -0.97 M79.35 41.08 C96.39 25.57, 108.49 9.97, 117.88 -1.42 M80.3 40.91 C93.93 26.69, 108.55 10.24, 116.35 0.99 M84.77 40.59 C99.75 26.16, 114.12 8.31, 121.66 1.42 M85.44 42.01 C97.33 30.41, 107.46 18.23, 121.32 0.37 M90.2 40.46 C99.97 30.14, 106.31 21.37, 128.35 -1.52 M91.08 40.69 C103.82 25.31, 117.19 10.79, 126.13 0.19 M95.02 42.12 C110.3 25.91, 120.82 9.28, 132.15 1.87 M96.73 42.35 C108.13 29.57, 118.11 16.86, 132.12 -0.34 M100.25 39.82 C109.43 31.5, 118.41 23.8, 136.35 1.82 M101.85 41.64 C111.51 28.68, 122.68 16.19, 136.98 -0.31 M106 40 C117.63 28.97, 125.84 18.22, 141.41 -2.07 M107.19 41.84 C119.88 25.84, 134.2 9.18, 142.57 0.11 M111.52 40.45 C121.83 32.54, 128.79 22.53, 146.36 -1.55 M112.72 40.21 C119.07 32.01, 126.46 23.46, 148.31 1.17 M116.67 41.62 C130.53 28.33, 141.79 11.92, 152.87 -0.49 M116.97 41.41 C126.21 30.54, 137.04 19.9, 153.09 0.84 M121.93 41.8 C137.17 24.14, 148.14 10.48, 158.72 0.38 M122.9 40.81 C136.89 27.3, 149.17 12.47, 158.59 0.24 M129.89 40.46 C139.83 28.64, 153.52 11.36, 165.81 -1.31 M129.28 41.92 C135.96 31.22, 144.57 23.29, 165.19 -1.04 M133.27 41.41 C147.34 24.34, 160.6 11.69, 169.65 1.72 M134.61 41.75 C141.43 31.95, 148.93 25.36, 169.34 0.46 M140.39 40.14 C150.5 25.42, 163.04 11.67, 175.39 1.63 M138.41 42.17 C153.99 24.47, 167.31 9.27, 175.43 -0.54 M143.2 38.98 C158.12 27.02, 167.1 13.55, 179.27 -1.28 M145.17 41.31 C158.86 25.36, 171.89 9.64, 179.16 -0.69 M150.76 42.41 C161.7 27.45, 171.19 17.12, 184.65 0.66 M149.69 40.9 C158.74 31.46, 167.48 21.49, 185.43 -0.68 M157.25 40.3 C168.61 26.3, 181.63 11.4, 191.53 1.75 M154.96 41.69 C168.1 26.07, 180.18 11.1, 189.69 0.21 M159.47 43.14 C170.64 26.65, 180.69 14.71, 196.51 -1.81 M159.53 40.79 C170.29 29.91, 178.78 18.89, 195.87 -0.57 M164.84 41.31 C172.32 33.48, 183.09 21.84, 202.3 -0.7 M165.41 41.04 C177.59 28.22, 189.62 12.79, 201.66 0.54 M168.88 40.32 C180.73 26.75, 193.08 15.15, 205.74 -1.22 M171.4 40.44 C181.97 26.12, 194.32 12.14, 206.5 0.61 M174.6 40.82 C185.53 33.42, 194.35 22.08, 211.29 1.99 M176.35 42.19 C189.06 26.08, 200.2 12.02, 212.84 -0.42 M181.22 42.07 C191.06 32.39, 198.18 21.96, 219.02 1.13 M181.81 40.4 C192.65 27.3, 206.51 13.11, 218.13 -0.37 M185 41.5 C197.32 27.71, 209.13 18.71, 222.11 -1.44 M186.67 41.66 C194.05 31.1, 203.66 22.58, 222.08 0.57 M190.57 42.63 C198 30.68, 206.17 24.41, 226.88 -1.98 M192.37 41.17 C202.83 28.45, 216.37 13.4, 228.63 -0.8 M196.43 42.41 C204.46 33.52, 213.84 21.31, 234.23 -0.11 M196.32 42.15 C211.14 26.66, 224.84 8.81, 233.27 0.7 M202.93 42.38 C210.42 33.37, 216.96 24.74, 239.07 1.16 M203.73 41.16 C214.83 26.48, 228.28 11.08, 238.28 0.72 M205.79 39.99 C220.76 29.57, 230.02 16.24, 243 -1.03 M207 41.55 C216.51 32.08, 223.67 23, 243.38 -0.94 M212.12 39.8 C222.02 34.56, 227.56 22.69, 247.19 2.08 M213.6 40.75 C224.89 27.24, 237.86 12.83, 248.39 1.26 M217.88 40.79 C230.94 28.1, 244.31 11.85, 255.65 -1.09 M217.44 41.7 C230.86 27.27, 243.65 12.49, 254.45 0.72 M223.89 39.53 C235.41 27.61, 247.23 17.38, 260.76 0.73 M224.76 40.22 C234.11 30.81, 241.82 20.37, 259.37 0.1 M229.35 41.49 C240.26 28.12, 251.74 18.86, 263.27 0.96 M229.46 42.37 C242.05 26.99, 255.13 13.23, 265.55 0.66 M235.82 40.29 C247.61 26.76, 257.37 12.64, 269.8 -1.59 M235.04 41.82 C247.31 26.24, 259.66 10.3, 269.33 -0.32 M240.74 40.91 C251.31 28.24, 263.71 14.86, 276.84 0.5 M239.93 41.26 C247.07 31.03, 255.83 21.86, 274.85 -0.2 M245.4 42.96 C252.9 30.95, 260.41 20.68, 280.23 -1.45 M245.37 41.72 C256.9 28.77, 268.99 14.08, 281.46 0.41 M248.47 39.96 C258.4 32.18, 265.51 23.07, 287.2 -1 M250.79 42.01 C261.94 26.83, 274.67 12.31, 285.56 -0.99 M253.98 42.53 C262.74 31.23, 270.79 21.3, 289.84 -1.3 M255.69 40.04 C269.32 25.9, 280.5 13.25, 292.01 0.61 M260.82 41.71 C274.75 26.66, 286.83 12.35, 297.09 0.11 M261.03 42.21 C270.83 29.23, 281.67 17.4, 297.96 -0.92 M266.77 40.13 C272.43 30.93, 280.42 22.6, 300.29 -1.44 M267.05 40.82 C276.07 30.46, 285.55 19.22, 302.28 0.56 M269.96 39.34 C280.53 29.93, 292.08 16.25, 309.11 1.54 M270.7 41.38 C281.34 30.94, 289.65 19.18, 307.39 -1.24 M276.88 39 C289.79 28.24, 297.45 15.18, 313.11 -0.07 M277.52 40.05 C286.86 29.75, 297.62 17.85, 312.65 0.45 M283.91 40.16 C294 29.43, 305.22 16.14, 317.72 -0.81 M282.95 40.97 C294.92 25.09, 309.11 10.33, 318.25 0.72 M289.29 40.5 C301.57 25.5, 313.67 9.61, 321.72 -1.27 M288.26 41.65 C295.62 32.93, 304.07 23.37, 322.56 0.43 M294.6 41.6 C305.19 30.49, 315.41 15.51, 329.27 -0.96 M291.94 40.37 C299.96 31.72, 309.57 23.67, 328.01 -0.44 M296.18 40.89 C309.46 26.47, 320.25 13.97, 334.09 2.53 M296.84 42.25 C308.4 29.42, 318.12 18.5, 333.18 2.1 M301.81 39.21 C315.76 27.39, 324.72 17.23, 331.44 8.75 M302.92 40.92 C313.78 30.34, 323.17 18.74, 332.64 7.4 M307.59 40.28 C316.95 32.49, 326.09 20.82, 331.52 12.58 M307.84 42.13 C314.52 33.59, 321.57 26.02, 332.21 14.53 M313.2 42.68 C318.39 34.87, 324.63 27.22, 332.29 20.31 M314.21 41.88 C319.17 36.06, 325.15 29.87, 331.69 20.44 M319.47 43.15 C322.88 38.4, 325.71 34.17, 332.22 24.62 M318.95 41.79 C323.88 35.59, 329.66 29.21, 333.45 25.1 M324.46 40.32 C328 37.46, 328.96 35.26, 331.64 32.05 M324.98 40.72 C327.06 37.97, 330.74 33.88, 332.87 31.46 M329.33 41.94 C330.74 41.12, 330.86 39.46, 332.99 38.02 M329.65 41.31 C330.83 40.06, 332.17 38.74, 332.86 37.69" stroke="#b2f2bb" stroke-width="0.5" fill="none"></path><path d="M-0.35 -1.28 C97.9 0.79, 199.01 -0.92, 330.65 0.23 M0.45 -0.53 C90.83 1.94, 179.87 1.97, 331.36 0.52 M331.94 -1.76 C329.74 6.93, 330.69 17.89, 329.91 39.4 M330.22 0.2 C332.04 15.07, 331.34 29.59, 332.06 40 M331.43 41.38 C233.03 39.05, 134.51 38.32, -0.42 39.31 M331.53 39.94 C262.6 38, 194.64 37.71, -0.14 40.66 M-1.39 38.9 C0.78 22.71, 1.72 6.57, 1.88 1.91 M-0.86 40.23 C-0.53 26.73, -0.68 13.71, -0.15 0.77" stroke="#1e1e1e" stroke-width="1" fill="none"></path></g><g stroke-linecap="round" transform="translate(37.75 248.41796875) rotate(0 165.546875 20.0390625)"><path d="M0 0 C0 0, 0 0, 0 0 M0 0 C0 0, 0 0, 0 0 M0.26 6.54 C1.95 4.23, 4.37 2.36, 4.49 -0.4 M-0.44 6.36 C0.48 4.8, 2.35 3.64, 5.01 0.12 M-1.41 11.87 C4.02 7.14, 6.39 5.64, 10.58 1.01 M0.16 11.27 C2.26 8.13, 5.61 5.22, 11.3 0.76 M-0.63 19.62 C3.27 11.75, 8.95 5.71, 14.16 -0.39 M0.68 19.16 C5.95 10.91, 11.97 4.42, 15.4 1.07 M0.61 23.47 C8.7 16.01, 15.98 6.36, 20.78 -1.5 M-0.56 23.96 C6.82 17.27, 13.48 8.57, 21.68 -0.62 M0.37 29.6 C8.73 22.33, 13.68 14.2, 27.82 -0.9 M0.75 31.18 C9.42 20.62, 18.98 9.01, 26.42 -0.2 M-1.19 37.12 C10.8 24.68, 21.93 9.72, 31.75 -2.03 M-0.19 36.86 C11.56 23.21, 24.58 8.66, 30.98 0.2 M-0.12 40 C14.87 27.03, 29.9 9.54, 37.71 -1.71 M0.69 41.55 C11.46 30.31, 22.1 18.74, 37.24 -0.14 M8.15 42.6 C18.3 25.53, 32.41 9.02, 43.4 1.12 M7.03 41.91 C13.88 31.74, 21.95 23.24, 41.56 0.8 M12.2 40.69 C23.94 26.64, 34.17 13.39, 48.68 0.67 M11.31 41.87 C19.24 31.21, 27.97 22.81, 48.09 1.14 M16.7 40.67 C26.32 31.43, 33.43 24.41, 51.5 -0.49 M16.8 41.98 C29.1 28.6, 40.32 15.25, 52.67 0.51 M22.42 39.3 C34.63 27.18, 48.23 11.59, 57.45 -0.14 M23.42 41.27 C31.31 30.19, 40.22 21.62, 58.23 -0.58 M27.76 42.99 C39.27 32.42, 45.4 20.37, 63.72 -1.18 M27.2 40.65 C35.94 31.95, 42.84 22.27, 64.61 0.61 M32.71 39.01 C45.98 24, 62.27 10.18, 68.63 -0.39 M34.09 40.28 C43.06 31.13, 50.75 20.71, 68.01 0.45 M36.41 42.79 C50.89 30.59, 59.61 15.83, 75.6 -1.15 M37.34 40.92 C48.47 30.16, 57.12 20.9, 74.77 0.3 M45.1 41.12 C56.69 27.28, 65.91 13.7, 78.69 1.79 M43.42 41.35 C54.57 30.52, 63.02 18.38, 78.83 -0.11 M49.63 39.45 C63.58 24.66, 75.07 13.63, 86.55 1.54 M49.36 41.7 C59.86 26.96, 71.24 13.98, 85.56 0.72 M53.5 41.07 C61.95 31.91, 69.04 23.09, 91.98 -1.62 M54.61 40.87 C68.32 25.82, 80.65 10.1, 89.16 -0.63 M58.28 42.45 C69.02 33.86, 73.45 25.31, 95.86 -1.05 M60.47 41.87 C72.21 27.22, 83.93 13.71, 96.5 -1.05 M63.05 41.17 C75.32 31.48, 83.8 21.44, 100.71 -0.48 M65.25 41.94 C73.8 32.26, 82.05 21.53, 100.52 0.43 M69.08 39.43 C81.76 26.54, 92.82 14.22, 106.68 1.25 M70.96 40.21 C83.53 25.54, 96.88 12, 106.13 0.01 M76.71 39.59 C84.48 29.71, 93.63 18.52, 113.01 1.43 M75.96 41.3 C85.49 29.51, 94.31 18.91, 111.52 0.55 M80.63 40.12 C86.4 31.51, 96.85 25.45, 117.4 1.5 M80.17 41.46 C92.46 26.57, 104.73 13.63, 115.43 -0.38 M87.38 42.89 C93.76 30.64, 102.78 19.56, 120.82 -1.5 M86.46 41.93 C98.79 27.1, 110.35 14.56, 121.79 -0.83 M91.4 40.39 C100.48 32.8, 108.1 25.47, 128.25 0.64 M90.5 40.31 C103.95 27.01, 114.07 14.61, 126.39 1.16 M96.46 43 C106.07 29.21, 117.78 16.46, 132.02 -0.78 M96.18 41.96 C106.23 30.89, 113.8 21.68, 132.06 -0.35 M103.74 42.23 C110.38 30.34, 122.89 17.42, 137.35 -0.04 M101.42 41.36 C110.32 31.9, 116.82 24.53, 138.1 0.21 M105.24 41.98 C120.01 28.14, 129.46 12.79, 142.32 -1.8 M107.61 41.48 C116.84 30.34, 124.94 20.7, 144.11 -0.73 M111.87 41.77 C122.44 27.27, 134.38 15.21, 147.37 2.16 M113.45 41.16 C122.71 29.33, 131.93 19.77, 147.38 -0.46 M118.89 40.02 C127.51 28.19, 138.62 18.04, 155.31 0.19 M118.32 40.5 C129.64 27.6, 142.66 11.35, 154.77 -0.7 M121.91 41.25 C131.49 31.69, 143.98 17.41, 156.84 0.03 M124.18 40.21 C134.5 26.64, 148.16 12.45, 158.09 -0.14 M126.43 39.41 C140.3 26.77, 156.89 9.66, 162.49 0.06 M128.93 40.99 C142.02 26.47, 154.72 9.51, 163.95 -1.12 M135.81 41.04 C144.84 27.01, 157.33 17.54, 168.17 0.52 M134.28 40.92 C145.92 26.53, 156.93 14.34, 169.17 -0.19 M140.78 40.59 C147.37 31.49, 159.35 19.78, 175.18 -1.2 M139.13 40.82 C150.64 28.82, 163.18 15.14, 174.61 -0.85 M143.43 39.63 C156.74 25.03, 171.72 9.34, 179.66 0.67 M145.45 41.65 C155.07 30.62, 164.37 18.22, 180.61 -0.03 M150.73 42.12 C162.26 24.25, 179.11 9.51, 184.63 -0.47 M149.65 41.85 C157.72 32.56, 165.42 24.47, 184.79 -0.85 M154.5 41.64 C162.94 29.84, 171.51 22.85, 189.47 -0.33 M154.47 40.71 C163.27 31.3, 171.63 21.9, 191.48 0.86 M160.94 40.68 C167.8 30.13, 178.33 20.21, 197.93 -0.5 M160.32 41.82 C167.92 31.71, 174.24 23.81, 195.57 -0.14 M166.62 41.82 C177.74 30.53, 184.63 16.25, 199.63 -1.17 M165.19 40.34 C173.06 31.19, 180.84 23.69, 201.9 0.94 M171.95 43.07 C182.63 30.68, 191.66 20.16, 206.05 -1.92 M170 40.46 C182.75 28.06, 193.87 15.81, 207.11 0.22 M176.59 41.79 C183.8 32.17, 190.97 19.87, 212.05 1.57 M175.84 41.46 C184.91 29.09, 196.05 18.09, 211.05 0.6 M180.17 42.23 C194.6 26.07, 209.19 8.68, 215.84 0.75 M180.63 41.39 C192.89 26.52, 206.25 12.77, 216.62 -0.92 M187.1 43.03 C198.49 28.6, 210.64 12.6, 224.52 1.46 M185.72 40.68 C195.67 30.42, 205.78 19.3, 223.18 0.17 M193.89 41.21 C197.73 30.76, 208.52 23.62, 230.04 -0.86 M191.2 40.21 C198.97 32.04, 208.28 23.01, 228.39 -0.76 M198.69 43.42 C207.74 30.61, 219.08 14.1, 234.71 -1.83 M197.19 40.8 C210.64 24.69, 223.64 10.81, 233.6 -0.08 M201.26 41.19 C215.25 27.18, 224.99 17.41, 238.57 -0.25 M201.77 40.44 C215.55 26.74, 226.75 13.94, 239.09 0.2 M208.48 42.2 C217.04 33.08, 222.17 23.65, 244.15 1.51 M208.34 41.8 C217.19 30.71, 225.29 20.67, 244.68 0.06 M214.34 41.49 C224.17 26.49, 236.08 15.59, 249.23 0.94 M213.47 41.52 C223.79 29.19, 232.69 18.07, 248.44 1.12 M217.44 40.75 C230.68 27.19, 243.63 12.09, 254.25 -0.58 M218.32 41.62 C227.97 30.25, 238.32 19.03, 253.86 0.73 M225.01 39.53 C238.3 26.01, 253.69 9.61, 259.72 1.45 M224.48 40.86 C236.88 25.56, 250.94 9.5, 259.25 -0.63 M230.41 42.55 C240.77 30.98, 250.75 18.24, 266.3 -2.06 M229.36 42.12 C240.04 30.81, 248.83 18.85, 265.63 0.01 M233.09 42.87 C249.03 26.06, 261.01 9.7, 268.25 1.41 M234.05 41.78 C243.05 32.5, 250.93 23.59, 270.05 -0.51 M240.13 41.22 C248.69 30.59, 260.78 19.39, 277.46 1.27 M238.72 41.09 C248.39 30.49, 255.88 21.73, 275.55 -0.09 M246.22 41.19 C255.45 31.64, 264.74 18.49, 280.93 -0.94 M244.48 41.55 C256.7 28.16, 267.49 16.64, 280.44 -0.02 M251.18 40.51 C259.55 31.87, 264.93 25.03, 284.77 -0.3 M250.76 42.27 C262.97 26.05, 276.44 11.83, 286.24 0.41 M255.95 42.3 C264.99 29.04, 278.73 15.38, 291.73 -1.23 M255.16 41.38 C269.97 25.49, 282.62 8.63, 291.05 -0.74 M260.06 42.29 C272.62 29.66, 283.54 16.94, 297.14 1.68 M260.87 41.35 C268.79 30.65, 276.71 20.88, 297.4 -0.62 M265.68 40.12 C275.47 27.84, 285.75 19.18, 302.49 -0.98 M266.51 40.41 C273.82 32.36, 280.92 24.71, 301.62 -0.3 M271.1 42.56 C277.21 33.08, 285.26 23.68, 307.36 1.75 M271.52 41.92 C278.98 32.46, 287.59 22.71, 307.76 0.66 M278.71 42.73 C285.1 31.59, 295.78 18.21, 310.96 0.45 M278.03 41.72 C288.71 28.83, 298.61 15.9, 312.91 -0.42 M280.52 39.42 C293.71 29.09, 307.24 14.3, 320.1 0.6 M282.23 41.54 C293.45 28.49, 306.15 14.79, 319.13 0.02 M286.19 40.29 C298.2 27.98, 305.64 16.75, 322.72 1.8 M288.27 40.33 C302.44 24.63, 314.68 9.7, 322.77 -0.84 M292.44 41.13 C306.04 25.74, 317.16 15.8, 327.87 1.03 M293.61 41.7 C302.44 28.23, 312.35 17.7, 328.39 -0.84 M298.51 41.87 C312.32 24.61, 324.84 10.93, 333.93 1.44 M298.22 41.96 C309.76 27.02, 321.71 13.53, 332.8 2.1 M302.83 42.06 C311.72 32.67, 317.9 25.65, 332.55 7.53 M303.29 41.82 C312.51 31, 320.81 21.56, 332.92 7.28 M307.89 40.39 C313.52 35.71, 320.52 29.26, 334.08 15.43 M307.86 41.98 C316.5 32.41, 325.47 23.25, 333.07 13.59 M315.53 42.69 C319.33 34.25, 326.53 27.28, 332.39 20.89 M314.01 41.26 C319.18 35.71, 322.55 31.39, 331.67 19.69 M320.46 41.17 C322.64 38.29, 325.18 31.28, 333.57 26.31 M318.28 41.98 C321.34 37.49, 325.91 35.44, 333.81 25.11 M325.63 41.43 C326.32 38.78, 327.72 36.42, 332.69 32.16 M325.19 41.23 C327.63 37.62, 330.19 34.27, 332.2 31.94 M329.97 41.81 C330.35 40.63, 332.31 39.03, 333.09 37.59 M329.83 41.27 C330.49 40.04, 331.67 39.13, 332.99 37.92" stroke="#b2f2bb" stroke-width="0.5" fill="none"></path><path d="M0.91 -0.18 C110.72 -0.42, 219.5 2.13, 331.59 0.4 M-0.03 -0.39 C104.6 0.35, 211.09 -0.01, 331.61 -0.63 M329.21 1.5 C328.99 14.19, 330.56 24.99, 331.55 39.93 M332.04 0.58 C331.62 10.57, 330.42 23.03, 330.32 41.06 M331.34 39.75 C262.73 41.06, 194.15 41.37, -0.84 39.02 M331.55 40.18 C260.91 41.42, 191.14 41.37, -0.32 39.64 M-0.9 42.07 C-1.58 27.79, -0.05 16.72, 1.14 -0.01 M0.19 39.54 C-1.24 30.44, 0.37 20.88, 0.87 -0.5" stroke="#1e1e1e" stroke-width="1" fill="none"></path></g><g stroke-linecap="round" transform="translate(38.05078125 304.0234375) rotate(0 165.546875 20.0390625)"><path d="M0 0 C0 0, 0 0, 0 0 M0 0 C0 0, 0 0, 0 0 M-1.03 6.31 C1.68 3.95, 2.87 3.2, 4.96 0.88 M-0.25 6.01 C0.8 4.44, 2.47 2.99, 5.32 0.76 M-0.27 12.99 C2.22 7.42, 6.14 3.31, 9.46 -0.6 M0.78 12.61 C4.24 6.9, 8.29 2.6, 10.46 0.56 M0.21 17.83 C6.27 12.77, 11.45 5.52, 15.14 -1.11 M-0.95 18.32 C4.79 13.56, 9.8 6.76, 16.03 -0.22 M0.63 23.2 C7.61 17.49, 11.19 10.94, 22.83 -1.26 M1.01 24.78 C7.81 16.38, 15.51 6.91, 21.44 -0.56 M-0.93 30.72 C8.91 20.71, 17.93 8.17, 26.11 -1.64 M0.07 30.46 C9.53 19.41, 20.26 7.48, 25.34 0.59 M-1.82 35.87 C11.87 24.37, 25.62 8.35, 32.72 -2.07 M-1.01 37.42 C8.82 27.25, 18.55 16.73, 32.26 -0.5 M3.16 42.24 C13.07 25.46, 26.93 9.23, 37.76 1.52 M2.04 41.55 C8.77 31.54, 16.7 23.2, 35.92 1.19 M6.56 41.09 C18.5 26.79, 28.94 13.3, 43.69 0.31 M5.67 42.26 C13.75 31.44, 22.62 22.88, 43.1 0.78 M11.71 40.31 C21.2 31.23, 28.18 24.36, 45.86 -0.09 M11.81 41.62 C23.91 28.48, 34.93 15.37, 47.03 0.91 M16.78 39.7 C29.23 27.29, 43.06 11.43, 52.47 -0.5 M17.78 41.66 C25.83 30.4, 34.9 21.64, 53.24 -0.94 M22.77 42.63 C34.1 32.25, 40.06 20.4, 58.08 -0.79 M22.22 40.29 C30.81 31.76, 37.57 22.25, 58.97 1 M27.06 39.4 C40.59 24.1, 57.13 9.99, 63.64 -0.75 M28.44 40.67 C37.59 31.34, 45.43 20.74, 63.02 0.09 M31.42 42.43 C45.71 30.45, 54.23 15.92, 69.96 -0.75 M32.35 40.56 C43.31 29.99, 51.8 20.93, 69.12 0.69 M39.45 41.52 C51.25 27.43, 60.68 13.62, 73.7 1.43 M37.78 41.74 C49.11 30.72, 57.74 18.37, 73.84 -0.47 M44.65 39.09 C58.36 24.57, 69.61 13.81, 80.91 1.94 M44.37 41.34 C54.67 26.85, 65.83 14.11, 79.92 1.11 M47.86 41.47 C56.45 32.14, 63.68 23.16, 86.99 -1.98 M48.97 41.27 C62.93 25.93, 75.51 9.91, 84.17 -0.99 M53.3 42.09 C63.89 33.65, 68.18 25.26, 90.21 -0.66 M55.48 41.51 C67 27.11, 78.51 13.84, 90.85 -0.66 M58.06 40.81 C70.33 31.12, 78.82 21.08, 95.73 -0.84 M60.26 41.58 C68.81 31.9, 77.06 21.17, 95.54 0.07 M63.44 39.82 C76.12 26.94, 87.17 14.62, 101.04 1.64 M65.32 40.6 C77.88 25.93, 91.24 12.39, 100.49 0.41 M71.73 39.23 C79.5 29.35, 88.65 18.16, 108.02 1.07 M70.98 40.94 C80.51 29.15, 89.32 18.55, 106.53 0.19 M74.98 40.51 C80.9 31.75, 91.49 25.52, 112.42 1.14 M74.53 41.86 C87.04 26.71, 99.53 13.52, 110.44 -0.74 M82.39 42.53 C88.62 30.47, 97.47 19.58, 115.18 -1.1 M81.47 41.57 C93.58 26.99, 104.93 14.7, 116.15 -0.43 M85.75 40.78 C94.98 33.03, 102.74 25.55, 123.26 0.28 M84.86 40.71 C98.52 27.16, 108.86 14.51, 121.4 0.8 M91.47 42.64 C100.9 29.06, 112.43 16.52, 126.38 -0.39 M91.19 41.6 C101.08 30.71, 108.48 21.68, 126.42 0.04 M98.09 42.63 C104.92 30.53, 117.62 17.4, 132.36 -0.4 M95.77 41.76 C104.82 32.13, 111.46 24.61, 133.11 -0.15 M100.26 41.62 C114.8 28.02, 124.03 12.91, 136.67 -1.41 M102.62 41.12 C111.69 30.17, 119.63 20.72, 138.46 -0.33 M106.23 42.17 C117 27.43, 129.14 15.15, 142.38 1.8 M107.81 41.56 C117.24 29.52, 126.63 19.76, 142.39 -0.82 M113.9 39.66 C122.33 28.06, 133.24 18.13, 149.67 0.58 M113.33 40.14 C124.42 27.51, 137.21 11.52, 149.13 -0.31 M116.26 41.65 C126.03 31.88, 138.7 17.39, 151.85 -0.33 M118.54 40.6 C129.08 26.77, 142.97 12.32, 153.1 -0.5 M121.44 39.05 C135.07 26.69, 151.42 9.87, 156.84 0.45 M123.95 40.63 C136.79 26.4, 149.25 9.72, 158.31 -0.72 M130.17 41.43 C139.4 27.17, 152.09 17.46, 163.19 0.16 M128.64 41.31 C140.5 26.67, 151.73 14.22, 164.18 -0.55 M135.79 40.23 C142.21 31.33, 154.01 19.82, 169.54 -0.81 M134.14 40.46 C145.44 28.7, 157.77 15.26, 168.97 -0.45 M137.79 40.02 C151.36 25.12, 166.59 9.15, 174.68 0.31 M139.81 42.05 C149.61 30.8, 159.1 18.19, 175.62 -0.39 M145.75 41.76 C157.02 24.19, 173.62 9.74, 178.99 -0.07 M144.67 41.49 C152.6 32.35, 160.16 24.41, 179.15 -0.45 M148.86 42.04 C157.46 30.06, 166.18 22.88, 184.48 -0.69 M148.83 41.11 C157.77 31.52, 166.28 21.96, 186.49 0.5 M155.96 40.32 C162.66 29.95, 173.02 20.22, 192.29 -0.1 M155.33 41.46 C162.81 31.5, 168.99 23.76, 189.93 0.26 M160.97 42.21 C172.29 30.71, 179.36 16.22, 194.64 -1.53 M159.54 40.73 C167.56 31.42, 175.48 23.76, 196.91 0.58 M166.97 42.71 C177.46 30.53, 186.32 20.21, 200.41 -1.53 M165.01 40.1 C177.56 27.94, 188.47 15.93, 201.47 0.62 M171.61 41.43 C178.82 31.81, 185.99 19.51, 207.06 1.21 M170.86 41.1 C179.92 28.73, 191.07 17.73, 206.06 0.24 M174.53 42.62 C188.96 26.46, 203.54 9.08, 210.2 1.15 M174.98 41.79 C187.24 26.91, 200.6 13.16, 210.98 -0.53 M182.11 42.67 C193.51 28.24, 205.65 12.24, 219.53 1.1 M180.73 40.32 C190.69 30.06, 200.8 18.94, 218.19 -0.19 M188.25 41.6 C192.09 31.15, 202.87 24.02, 224.39 -0.46 M185.55 40.61 C193.32 32.43, 202.63 23.41, 222.74 -0.36 M193.71 43.06 C202.75 30.25, 214.09 13.74, 229.72 -2.19 M192.2 40.44 C205.65 24.33, 218.65 10.45, 228.61 -0.44 M195.62 41.59 C209.81 27.35, 219.75 17.34, 233.58 -0.61 M196.13 40.83 C210.14 26.88, 221.56 13.82, 234.1 -0.16 M203.49 41.84 C211.91 32.88, 216.91 23.6, 238.5 1.9 M203.35 41.44 C212.04 30.54, 219.98 20.68, 239.04 0.46 M208.69 41.88 C218.73 26.65, 230.84 15.51, 244.25 0.58 M207.83 41.92 C218.33 29.37, 227.42 18.03, 243.45 0.76 M212.45 40.39 C225.45 27.12, 238.15 12.3, 248.6 -0.19 M213.33 41.26 C222.8 30.1, 232.97 19.08, 248.21 1.12 M219.37 39.92 C232.92 26.11, 248.56 9.42, 254.73 1.09 M218.84 41.25 C231.49 25.66, 245.8 9.3, 254.26 -0.99 M225.42 42.18 C235.6 30.82, 245.39 18.29, 260.65 -1.66 M224.37 41.76 C234.86 30.65, 243.48 18.9, 259.98 0.4 M227.45 43.26 C243.63 26.16, 255.86 9.52, 263.26 1.05 M228.41 42.17 C237.55 32.74, 245.57 23.67, 265.07 -0.87 M235.14 40.86 C243.52 30.43, 255.44 19.43, 271.82 1.66 M233.74 40.73 C243.25 30.31, 250.58 21.73, 269.9 0.31 M240.58 41.58 C249.98 31.84, 259.44 18.5, 275.94 -1.3 M238.84 41.94 C251.26 28.34, 262.25 16.59, 275.45 -0.38 M246.2 40.15 C254.42 31.67, 259.64 25, 279.13 0.1 M245.77 41.91 C257.75 25.96, 270.98 12.02, 280.6 0.8 M250.3 42.69 C259.55 29.21, 273.48 15.33, 286.74 -1.59 M249.52 41.77 C264.58 25.6, 277.48 8.44, 286.06 -1.1 M255.07 41.93 C267.42 29.53, 278.14 17.05, 291.5 2.07 M255.88 40.99 C263.65 30.47, 271.41 20.88, 291.75 -0.23 M260.04 40.52 C270 28.03, 280.46 19.16, 297.51 -1.34 M260.86 40.8 C268.32 32.59, 275.56 24.79, 296.63 -0.66 M266.11 42.2 C272.09 32.88, 279.99 23.64, 301.72 2.14 M266.53 41.56 C273.85 32.28, 282.3 22.7, 302.11 1.05 M273.06 43.12 C279.63 31.78, 290.49 18.2, 305.97 0.09 M272.38 42.11 C283.27 28.99, 293.37 15.83, 307.92 -0.78 M275.54 39.06 C288.51 28.96, 301.83 14.42, 314.45 0.99 M277.25 41.18 C288.24 28.37, 300.73 14.92, 313.49 0.41 M280.54 40.69 C292.74 28.17, 300.36 16.73, 317.73 1.44 M282.63 40.73 C297.05 24.74, 309.54 9.52, 317.79 -1.2 M287.46 40.77 C300.84 25.63, 311.75 15.93, 322.23 1.43 M288.62 41.34 C297.27 28.09, 306.99 17.78, 322.75 -0.44 M293.52 41.51 C307.86 23.65, 320.89 9.37, 330.26 -0.43 M293.23 41.6 C305.24 26.13, 317.65 12.11, 329.12 0.23 M297.18 42.45 C307.27 31.76, 314.61 23.4, 332.16 1.89 M297.65 42.21 C308.36 29.66, 318.13 18.54, 332.52 1.64 M302.9 40.03 C309.68 34.03, 317.83 26.26, 334.34 9.03 M302.87 41.62 C313.29 30.03, 323.99 18.88, 333.33 7.2 M309.88 43.09 C315.6 32.5, 324.7 23.34, 332.65 14.49 M308.37 41.66 C314.98 34.42, 319.84 28.39, 331.93 13.3 M315.47 40.81 C318.9 36.54, 322.66 28.13, 333.18 20.67 M313.29 41.62 C317.32 36.02, 322.89 32.84, 333.42 19.47 M320.62 42.05 C321.92 37.46, 324.42 33.33, 333.04 25.84 M319.89 41.72 C324.18 35.43, 328.69 29.57, 332.22 25.48 M325.41 41.95 C326.32 39.13, 331.02 35.27, 332.89 31.83 M325.06 40.66 C326.64 37.7, 329.48 35.51, 332.65 32.61 M329.5 41.11 C330.32 40.31, 331.32 39.76, 333.06 38.07 M329.52 41.5 C330.61 40.32, 331.9 39, 332.84 37.67" stroke="#b2f2bb" stroke-width="0.5" fill="none"></path><path d="M-1.28 1.02 C105.42 2.13, 213.26 0.68, 331.4 -0.1 M0.65 0.39 C93.46 -2.39, 185.7 -1.57, 330.57 0.67 M331.45 -0.48 C331.79 6.59, 331.78 15.34, 329.86 38.52 M331.76 0.14 C330.25 7.85, 330.06 16.2, 330.63 39.43 M330.48 41.44 C233.43 41.84, 137.96 42.26, 0.78 40.07 M331.22 39.71 C254.69 39.26, 180.03 39, 0.59 39.74 M0.65 40.79 C1.23 26.55, -0.87 18.25, 1.07 -1.01 M-0.21 40.3 C-0.41 28.27, 0.36 17.77, -0.77 -0.54" stroke="#1e1e1e" stroke-width="1" fill="none"></path></g><g transform="translate(46.99609375 155.6640625) rotate(0 134.53985595703125 12.5)"><text x="0" y="0" font-family="Virgil, Segoe UI Emoji" font-size="20px" fill="#1e1e1e" text-anchor="start" style="white-space: pre;" direction="ltr" dominant-baseline="text-before-edge">sha256:98ea6e4f216f2fb...</text></g><g transform="translate(46.79608154296875 201.6953125) rotate(0 130.70986938476562 12.5)"><text x="0" y="0" font-family="Virgil, Segoe UI Emoji" font-size="20px" fill="#1e1e1e" text-anchor="start" style="white-space: pre;" direction="ltr" dominant-baseline="text-before-edge">sha256:bcab0cf495720a...</text></g><g transform="translate(48.60076904296875 257.515625) rotate(0 133.76986694335938 12.5)"><text x="0" y="0" font-family="Virgil, Segoe UI Emoji" font-size="20px" fill="#1e1e1e" text-anchor="start" style="white-space: pre;" direction="ltr" dominant-baseline="text-before-edge">sha256:6add860672b81a...</text></g><g transform="translate(45.72576904296875 312.2578125) rotate(0 133.63986206054688 12.5)"><text x="0" y="0" font-family="Virgil, Segoe UI Emoji" font-size="20px" fill="#1e1e1e" text-anchor="start" style="white-space: pre;" direction="ltr" dominant-baseline="text-before-edge">sha256:32f62053f65132...</text></g><g stroke-linecap="round" transform="translate(477.27734375 127.93359375) rotate(0 183.427734375 23.662109375)"><path d="M0 0 C0 0, 0 0, 0 0 M0 0 C0 0, 0 0, 0 0 M-0.98 6.3 C1.94 4.39, 2.61 1.8, 4.67 0.78 M-0.11 6.16 C1.89 3.77, 3.89 1.46, 4.73 0.23 M-0.66 13.2 C2.11 9.5, 8.07 3.76, 9.99 -0.68 M0.38 11.42 C2.44 9.89, 5.29 7.23, 10.05 0.23 M-1.96 18.04 C7.28 12.2, 10.11 7.54, 16.15 2.12 M0.12 18.01 C5.52 10.47, 11.08 5.27, 14.69 -0.3 M-0.22 22.9 C8.02 16.87, 14.17 9.24, 20.74 1.09 M-0.27 23.53 C4.1 18.82, 9.61 14.7, 20.71 -0.78 M-0.47 28.71 C7.31 21.66, 19.61 7.63, 26.44 1.13 M-0.91 29.87 C6.18 22.99, 12.23 17.42, 25.64 0 M0.29 35.07 C9.01 22.06, 22.68 11.65, 31.86 -1.73 M-0.79 37.02 C7.55 29.91, 13.46 22.54, 31.36 0.01 M0.18 41.58 C10.67 28.9, 23.07 15.59, 35.37 0.31 M-0.25 41.8 C9.98 32.86, 17.87 22.56, 36.16 0.66 M0.42 48.09 C15.16 33.41, 27.75 15.17, 41.57 -0.51 M1.04 47.96 C15.13 31.49, 29.2 12.87, 43.29 -0.59 M5.75 49.14 C13.09 36.73, 23.04 26.91, 49.36 1.36 M6.69 48.52 C15.95 36.9, 26.25 23.35, 47.14 0.45 M12.65 48.36 C24.57 33.08, 32.66 20.22, 54.37 1.41 M11.89 48.05 C23.74 35.03, 34.96 21, 53.85 -0.76 M16.93 48.06 C28.07 39.35, 35.53 27.02, 56.99 1.9 M17.2 48.1 C32.99 29.28, 49.53 10.37, 57.42 -0.78 M21.18 47.31 C36.95 31.1, 54.15 8.86, 64.87 0.56 M22.02 47.2 C34.67 32.61, 48.81 16.29, 64.35 0.36 M29.24 46.65 C42.04 31.24, 53.38 14.97, 68.92 -0.61 M27.25 47.43 C40.25 33.27, 54.6 17.66, 69.76 -0.14 M34.2 48.91 C46.6 34.5, 58.66 17.4, 73.82 1.36 M31.42 47.07 C47.04 31.72, 61.8 15.73, 74.02 0.7 M36.92 47.85 C48.65 33.7, 62.66 20.11, 77.97 -0.8 M37.32 47.2 C53.5 29.19, 69.1 12.03, 78.87 0.35 M42.02 49.01 C51.35 37.51, 61.07 24.7, 84.08 0.1 M42.07 48.37 C54.51 35.03, 66.05 22.37, 84.05 -0.72 M48.36 46.42 C58.46 36.43, 70.67 25.4, 91.07 -1.47 M47.83 47.17 C58.89 36.96, 66.37 26.84, 89.4 -0.29 M53.06 47.34 C70.36 31.42, 85.33 14.95, 96.65 0.93 M53.86 48.89 C69.43 29.03, 85.17 12.27, 95.53 0.13 M58.03 49.03 C76.36 30.11, 90.76 11.14, 101.28 -1.51 M59.16 48.13 C67.69 37.57, 76.04 26.95, 99.91 0.03 M65.89 47.49 C75.92 31.86, 91.07 17.97, 106.66 -0.11 M64.61 47.46 C75.14 35.5, 84.68 24.31, 105.52 0.4 M69.9 46.97 C77.19 38.78, 89.32 27.59, 111.76 0.06 M68.93 48.73 C77.16 37.16, 85.5 27.69, 110.94 0.47 M73.19 48.95 C84.77 37.86, 95.16 22.5, 114.68 1.66 M74.1 47.99 C87.77 32.64, 98.69 18.23, 116.35 1.01 M80.04 49.16 C93.2 35.59, 106.85 19.37, 123.84 0.08 M80.71 48.37 C88.53 38.84, 96.05 28.8, 120.94 -0.76 M85.75 47.06 C100.21 28.21, 117.12 12.88, 125.39 0.5 M86.02 47.43 C99.7 29.63, 115.04 13.62, 126.27 -0.3 M88.64 46.62 C107.11 31.53, 121.31 14.86, 132.95 -0.72 M90.01 47.82 C102.87 35.35, 113.69 22.03, 132.3 -0.38 M96.52 49.04 C106.68 35.06, 120.01 20.25, 135.65 0.84 M96.03 47.83 C109.5 33.31, 121.74 19.11, 137.47 -0.45 M102.72 49.52 C115.82 30.82, 128.69 14.65, 144.64 -1.73 M100.94 48.13 C117.82 28.98, 134.95 9.38, 143.35 -0.04 M108.56 45.99 C122.08 32.5, 133.39 15.76, 149.06 2.2 M107.71 48.27 C120.41 33.23, 132.33 17.28, 148.75 -0.09 M111.38 47.89 C124.02 33.92, 140.95 18.16, 154.58 1.5 M111.56 47.42 C122.66 35.48, 135.64 22.52, 154.36 -0.35 M119.03 48.89 C130.04 32.15, 143.45 20.9, 159.37 0.02 M116.57 46.91 C129.5 33.53, 141.99 21.3, 158.85 1.23 M121.87 47.66 C132.24 35.78, 145.21 21.3, 164.6 1.34 M121.84 48.89 C135.25 31.95, 147.79 18.33, 163.54 -0.84 M127.25 48.6 C140.82 33.18, 155.31 17.97, 170.46 1.56 M128.07 46.95 C136.31 36.74, 146.78 27.65, 168.46 1 M131.55 46.61 C142.8 36.4, 154.51 23.66, 174.62 -1.99 M133.72 48.77 C150.68 29.31, 167.98 9.36, 175.03 0.02 M138.65 47.82 C154.93 29.29, 171.8 9.64, 180.3 2 M139.6 48.69 C147.57 36.15, 158.36 26.52, 180.17 -0.22 M143.94 46.39 C150.92 37.66, 162.16 28.69, 186.7 -0.4 M143.05 48.38 C159.2 30.25, 173.95 12.47, 184.91 -1.19 M148.79 49.17 C159.88 36.71, 166.25 26.89, 189.03 0.37 M148.5 47.45 C162.22 31.78, 176.71 15.31, 190.54 -0.8 M152.63 48.55 C170.97 28.64, 189.1 7.98, 197.01 -1.91 M153.64 48.09 C167.71 32.68, 181 16.94, 197.2 -0.79 M159.35 47.11 C174.57 31.34, 192.14 10.65, 202.88 -0.42 M160.03 47.65 C171.97 36.24, 182.41 23.94, 202.06 -0.07 M165.38 46.49 C177.06 30.96, 190.2 16.63, 207.87 1.34 M165.23 47.33 C176.28 34.77, 187.64 20.84, 207.86 -0.09 M170.14 48.01 C184.95 28.15, 200.46 12.74, 210.23 -1.58 M171.4 46.75 C179.5 37.5, 188.01 27.66, 211.14 -0.27 M176.05 49.51 C188.18 34.92, 198.52 24.1, 215.71 1.07 M175.48 48.6 C192.29 30.21, 208.14 10.62, 216.78 -1.3 M183.08 46.07 C198.01 31.29, 211.75 13.95, 221.57 -0.45 M181.76 47.27 C195.52 31.47, 210.13 14.09, 222.17 -0.59 M184.65 46.77 C198.34 31.88, 213.48 18.83, 227.08 0.87 M186.02 47.46 C198.49 34.82, 209.44 22.73, 227.79 0.41 M189.58 48.16 C202.47 35.18, 211.95 22.94, 233.52 1.51 M191.52 47.57 C203.81 33, 216.31 19.07, 233.42 0.83 M197.28 47.3 C209.17 33.83, 225.27 16.12, 238.01 0.97 M196.38 48.53 C207.97 34.29, 220.27 21.58, 238.01 -0.29 M201.12 46.74 C218.32 31.3, 234.08 11.21, 244.82 -1.29 M201.02 48.78 C209.44 37.33, 219.61 27.44, 243.15 0.93 M206.2 48.02 C223.72 32.04, 238.22 12.49, 248.62 -0.78 M208.07 47.5 C218.65 35.82, 230.03 22.27, 248.44 0.06 M213.38 48.42 C222.12 37.77, 234.61 23.03, 256.35 1.44 M212.56 47.38 C226.68 32.85, 239.58 15.25, 253.52 -0.29 M217.77 49.71 C231.38 32.3, 241.82 17.52, 259.19 -0.41 M218.5 47.12 C234.62 28.34, 250.47 9.63, 260.09 0.23 M224.76 46.92 C236.11 32.96, 253.18 15.18, 267.09 -0.14 M223.03 48.14 C233.1 36.46, 241.65 26.76, 264.64 0.23 M228.49 49.04 C246.69 27.77, 259.23 13.23, 268.76 1.19 M229.03 47.18 C241.72 33.19, 252.87 20.15, 270.53 -0.68 M231.84 47.83 C250.31 30.1, 267.32 10.26, 274.17 0.01 M233.26 48.91 C249.21 30.71, 264.32 12.16, 276.58 0.61 M240.97 46.54 C248.76 37.9, 261.09 24.7, 282.53 -1.01 M238.97 48.57 C254.92 30.24, 270.86 11.27, 281.27 -0.53 M245.28 48.64 C257.42 36.1, 265.44 23.19, 284.82 -0.2 M244.02 48.6 C257.05 32.79, 272 17.41, 287.31 0.04 M251.96 46.62 C261.98 32.27, 276.13 17.45, 291.79 -0.16 M249.55 47.22 C262.51 33.47, 274.68 21.53, 291.78 -0.08 M253.91 46.7 C264.31 35.61, 278.6 23.6, 296.43 1.01 M254.03 47.15 C269.27 30.4, 283.44 12.9, 296.76 0.76 M260.33 49.58 C274.07 32.36, 283.1 19.21, 301.99 -1.54 M259.95 48.13 C268.71 37.41, 277.42 27.95, 301.45 0.92 M264.65 47.22 C274.4 36.8, 285.36 24.27, 308.48 1.31 M265.91 47.61 C276.68 35.7, 286.78 23.3, 306.79 0.07 M271.07 47.56 C282.92 34.49, 299.46 16.35, 312.67 1.45 M271.27 47.35 C281.72 36.5, 292.31 23.92, 311.61 -0.17 M274.55 47.31 C290.78 32.69, 304.11 17.48, 318.59 -1.76 M276.26 48.07 C290.39 31.02, 305.74 15.01, 319.21 0.37 M283.3 48.63 C293.16 33.38, 304.6 24.9, 321.52 -0.71 M282.58 48.01 C296.91 30.24, 313.85 12.35, 323.52 1.05 M286.8 47.94 C301.5 33.55, 313.51 18.7, 330.51 1.2 M287.58 47.67 C302.79 30.48, 316.56 12.09, 329.74 -0.93 M294.27 48.67 C306.34 33.75, 319.13 16.22, 332.35 -1.67 M292.85 48.3 C305.55 31.91, 318.31 17.89, 334.4 0.04 M298.71 45.97 C311.39 32.8, 325.15 17.22, 338.1 -0.51 M298.35 48.63 C307.55 36.38, 319.24 23.59, 340.07 -1.33 M302.69 48.24 C315.29 32.05, 330.34 16.44, 343.08 0.79 M302.36 48.21 C313.12 37.23, 323.24 25.37, 345.39 -0.66 M309.7 46.11 C325.28 29.23, 342.09 12.28, 348.71 -0.98 M308.94 48.24 C317.1 37.49, 327.25 26.48, 349.14 -0.51 M311.37 49.48 C323.88 37.09, 331.9 23.64, 353.78 0.77 M313.28 48.54 C324.91 33.59, 337.68 20.27, 355.57 0.53 M317.34 48.97 C332.75 32.23, 348.3 14.76, 361.76 -0.67 M319.7 48.83 C334.36 30.19, 350.95 11.41, 359.83 0.65 M323.26 48.7 C338.25 35.39, 348.54 19.48, 366.62 0.24 M323.75 47.43 C335.29 35.61, 346.02 22.85, 365.95 0.26 M329.3 47.02 C340.96 36.56, 352.3 20.9, 367.53 3.57 M328.88 47.81 C341.75 32.3, 356.92 17.02, 369.65 2.09 M336.12 49.3 C344.57 36.25, 353.83 26.48, 370.7 9.36 M334.52 47.3 C344.89 35.83, 355.3 23.21, 368.29 8.56 M339.39 48.61 C351.62 36.89, 362.09 21.14, 367.87 14.36 M340.7 47.64 C347.52 40.61, 353.51 31.91, 369.5 14.36 M345.8 46.56 C353.43 38.26, 360.05 27.43, 368.38 21.33 M344.24 47.65 C349.52 42.44, 356.11 36.03, 369.39 19.67 M351.55 45.97 C354.1 40.41, 362.28 35.77, 369.76 28.29 M351.3 47.85 C355.87 41.31, 361.53 34.66, 369.23 27.21 M354.32 47.66 C359.67 44.94, 363 40.66, 367.5 33.97 M355.55 49.05 C361.09 42.59, 366.74 35.19, 369.39 31.66 M360.41 47.41 C363.89 44.42, 364.73 43.48, 370.36 38.65 M360.98 47.31 C363.52 44.98, 366.17 42.6, 369.37 38.43" stroke="#a5d8ff" stroke-width="0.5" fill="none"></path><path d="M-1.03 -0.01 C102.28 -2.95, 204.98 -2.48, 366.79 -0.6 M0.52 0.44 C108.95 1.95, 217.83 2.19, 367.27 -0.56 M365.01 -1.89 C364.6 15.8, 367.7 35.74, 367.82 45.79 M367.11 -0.42 C367.21 17.53, 367.57 33.99, 366.51 47.99 M366.18 46.51 C270.65 44.68, 171.78 46.63, 0.29 48.08 M366.46 47.12 C245.1 47.14, 123.64 47.08, 0.29 47.53 M0.04 46.46 C0.8 34.25, -1.67 23.93, -1.96 0.64 M0.67 46.83 C-1.07 38.02, -1.05 27.08, -0.75 -0.02" stroke="#1e1e1e" stroke-width="1" fill="none"></path></g><g transform="translate(489.9296875 139.15625) rotate(0 61.589927673339844 12.5)"><text x="0" y="0" font-family="Virgil, Segoe UI Emoji" font-size="20px" fill="#1e1e1e" text-anchor="start" style="white-space: pre;" direction="ltr" dominant-baseline="text-before-edge">.tar.gz layer</text></g><g stroke-linecap="round" transform="translate(478.869140625 185.994140625) rotate(0 183.427734375 23.662109375)"><path d="M0 0 C0 0, 0 0, 0 0 M0 0 C0 0, 0 0, 0 0 M-0.34 6.26 C0.6 4.08, 3.12 2.15, 5.23 0.83 M-0.04 6.36 C1.12 4.57, 1.9 3.11, 5.1 0.51 M-0.56 10.67 C2.51 8.77, 7.93 5.75, 10.73 1.42 M0.88 11.53 C2.73 8.67, 5.16 5.71, 10.93 -0.51 M-0.93 20.33 C2.62 13.04, 8.87 11.83, 15.89 1.19 M-0.92 17.71 C3.33 14.21, 7.05 10.7, 14.93 -0.1 M1.77 24.39 C6.63 17.45, 10.93 12.95, 19.5 -1.7 M1.23 23.5 C8.07 15.86, 15.62 5.34, 21.39 -0.81 M-1.95 30.28 C11.16 20.27, 18.68 8.53, 24.68 -1.7 M-0.7 30.1 C7.59 22.7, 14.53 13.67, 25.28 -0.46 M-2.21 37.09 C12.52 23.42, 23.18 11.39, 31.16 0.24 M-0.75 35.92 C11.92 23.6, 24.67 10.65, 31.93 -0.07 M-1.11 42.84 C9.48 32.65, 16.91 22.24, 36.79 0.34 M-0.12 42.12 C8.63 32.13, 16.61 23.77, 36.51 -0.49 M0.65 47.15 C15.68 29.13, 28.4 14.09, 41.53 -0.83 M0.08 47.51 C16.15 30.28, 30.69 12.96, 41.87 -1.1 M5.78 48.27 C18.7 32.51, 30.9 20.06, 48.96 0.95 M6.73 47.57 C23.72 29.17, 40.15 10.31, 47.93 -0.38 M10.1 47.89 C20.13 32.92, 33.64 21.93, 54.28 0.77 M10.26 47.51 C21.11 35.67, 31.88 22.58, 53.53 -0.61 M15.59 47.27 C24.99 35.62, 35.32 24.09, 57.79 -0.13 M17.6 48.46 C26.41 36.76, 36.76 24.85, 57.85 -0.41 M23.39 47.86 C30.32 36.74, 43.74 24.03, 64.93 0.85 M21.04 48.22 C30.26 38.02, 38.38 29.31, 64.26 0.58 M25.75 46.43 C40.64 30.38, 58.73 13.15, 67.74 -1.03 M28.02 48.54 C37.09 35.87, 48.16 25.48, 69.69 1.11 M31.51 46.43 C47.13 32.65, 60.46 12.24, 72.89 1.33 M32.58 48.58 C43.55 34.65, 56.92 20.5, 74.52 -0.36 M38.17 49.17 C51.78 33.41, 65.7 16.56, 79.17 -1.77 M37.17 48.2 C48.18 36.71, 55.98 25.56, 79.92 -0.22 M41.31 49.11 C56.93 31.96, 70.76 15.85, 85.47 -1.72 M42.09 47.44 C52.31 36.99, 60.52 27.25, 85.79 -0.37 M50.64 49.06 C61.34 33.43, 74.58 15.67, 88.3 -0.22 M49.3 47.77 C58.57 35.75, 70.36 23.5, 90.06 -0.84 M55.5 47.5 C60.92 37.48, 73.25 24.84, 93.81 -2.13 M53.85 47.6 C66.36 33.56, 79.64 19.03, 96.63 -0.42 M60.83 45.77 C77.25 29.32, 92.8 10.43, 99.24 -0.14 M59.72 47.52 C68.11 37.24, 75.87 27.3, 100.7 0.73 M64.69 47.35 C74.6 35.93, 81.33 24.01, 104.96 0.42 M65.21 47.8 C73.58 35.47, 85.34 25.23, 106.67 0.44 M69.61 49.86 C81.8 32.11, 98.23 18.68, 111.95 0.85 M70.15 48.42 C81.15 35.69, 92.02 22.3, 111.49 -0.08 M75.35 48.54 C82.98 38.08, 93.42 28.49, 117.17 1.1 M74.56 48.72 C88.18 34.5, 99.76 19.44, 115.93 -0.13 M79.71 47.77 C95.49 29.68, 111.27 11.72, 122.29 -0.77 M79.32 49.08 C94.07 31.91, 107.05 18.02, 121.16 0.09 M85.84 49.05 C101.12 32.36, 115.15 15.96, 126.54 -1.03 M85.37 46.97 C100.34 30.57, 114.45 14.37, 127.48 1.18 M91.76 46.3 C103.86 30.46, 117.49 16.29, 133.98 1.63 M91.09 48.36 C106.36 31.68, 120.81 13.19, 133.48 0.55 M94.37 49.01 C108.06 30.54, 123.33 15.43, 139.07 1.46 M96.17 47.09 C108.08 33.18, 120.19 19.11, 137.46 -0.11 M102.92 49.62 C112.55 34.78, 127.1 16.56, 142.62 0.79 M101.01 48.27 C109.92 38.39, 118.75 28.29, 143.29 0.51 M107.05 46.66 C120.99 29.85, 133.94 13.12, 149.31 1.38 M106.56 47.58 C114.09 37.56, 122.51 29.11, 147.76 0.72 M110.23 48.06 C125.18 35.68, 136.43 21.91, 155.69 -0.42 M111.71 48.76 C124.11 33.58, 136.74 19.25, 154.49 -0.82 M117.85 46.37 C131.69 35.16, 141.43 16.85, 159.67 1.65 M117.17 46.87 C130.63 32.53, 142.59 18.15, 159.29 0.31 M122.61 50.03 C135.87 31.6, 152.69 14.02, 164.53 -1.01 M122.86 47.73 C131.92 38.55, 142.39 26.69, 164.05 -0.36 M128.61 46.62 C135.31 36.82, 144 26.87, 168.43 -0.65 M127.74 47.3 C139.48 34.04, 152.03 20, 170.07 -0.77 M132.83 50.11 C146.11 32.03, 162.21 15.76, 176.38 -1.86 M133.22 49.01 C149.29 28.84, 165.62 11.15, 176 -1.04 M137.08 48.05 C154.58 29.92, 172.11 13.62, 181.76 1.64 M139.03 47.18 C154.46 29.08, 169.04 11.23, 179.15 0 M145.56 48.95 C158.34 30.15, 173.05 14.94, 186.32 -1.72 M144.59 48.37 C159.77 29.11, 176.08 9.24, 185.43 0.12 M148.84 49.4 C160.18 36.11, 167.22 28.59, 189.68 1.84 M148.89 46.76 C158.82 38.12, 168.17 26.72, 190.66 1.09 M153.34 49.39 C162.42 39.02, 172.4 29.43, 197.33 -1.23 M153.86 47.52 C164.94 36.43, 174.02 26.94, 196.49 0.05 M161.36 47.53 C171.45 34.96, 181.14 24.57, 202.12 -0.62 M160.23 48.19 C170.19 34.69, 181.18 22.66, 201.77 0.89 M164.58 48.34 C174.46 35.45, 186.95 24.39, 208.27 1.11 M164.94 48.09 C174.59 35.67, 186.38 23.04, 206.4 -0.39 M172.01 49.44 C183.9 31.15, 197.25 16.5, 212.87 -0.19 M171 47.61 C183.71 31.92, 196.27 17.67, 212.73 -0.28 M175.56 48.86 C186.72 35.26, 198.82 19.84, 217.86 0.92 M174.85 47.67 C187.37 33.26, 199.56 21.13, 217.43 -0.41 M182 48.25 C194.32 32.38, 208.52 13.22, 223.57 -1.19 M182.24 47.05 C189.68 36.38, 200.56 26.12, 222.86 -0.14 M186.46 48.14 C199.83 33.32, 210.92 21.74, 228.69 -0.06 M185.63 47.78 C197.81 35.61, 207.95 23.46, 228.93 -1.26 M191.78 47.95 C207.56 27.42, 224.68 11.34, 231.78 -1.8 M191.38 49.26 C199.75 39.32, 208.91 28.14, 232.52 -0.5 M197.3 49.48 C209.63 32.46, 221.69 19.03, 238.6 -1.2 M196.41 47.87 C212.75 29.79, 226.11 13.83, 238.65 0.49 M203.63 48.42 C218.47 29.14, 236.81 8.9, 242.9 1.89 M200.89 48.65 C212.25 36.24, 223.98 22.41, 243.16 0.8 M208 46.32 C217.49 35.5, 227.74 24.55, 247.22 1.99 M207.38 47.34 C221.22 30.98, 236.54 14.97, 249.36 -0.07 M213.75 49.88 C220.81 38.72, 231.64 27.95, 254.22 -0.04 M212.32 47.84 C229.09 29.24, 244.12 11.99, 255.26 -0.16 M218.34 46.2 C233.73 30.55, 250.71 10.51, 260.15 -1.64 M217.79 47.52 C233.64 31.34, 248.84 14.4, 258.93 0.38 M222.86 49.98 C231.81 38.27, 240.44 27.3, 266.9 0.58 M222.95 48.64 C240.58 28.4, 255.29 10.12, 264.39 0.63 M227.99 46.81 C241.23 31.5, 256.34 15.63, 271.47 2.18 M227.93 47.68 C242.54 30.94, 256.39 15.2, 270.96 0.32 M235.56 48.44 C242.93 32.91, 255.97 20.61, 273.98 -1.94 M233.14 48.77 C244.76 35.78, 257.32 20.59, 275.17 -0.86 M240.49 47.96 C250.82 34.68, 263.49 19.53, 279.17 1.8 M239.19 47.02 C248.76 35.79, 258.6 24.65, 280.1 0.17 M244.33 47.14 C258.96 30.81, 272.75 15.48, 284.37 0.83 M244.27 47.91 C253.25 37.49, 261.72 27.96, 287.28 -0.76 M251.24 47.58 C262.24 32.9, 275.79 20.25, 293.08 -0.27 M250 48.68 C257.57 37.79, 267.37 28.74, 292.06 0.3 M253.51 50.07 C268.67 32.71, 281.36 16.54, 298.87 -0.56 M254.81 47.68 C272.01 29.62, 288.12 9.01, 297.48 0.78 M259.54 45.73 C271.05 37.95, 276.83 27.29, 302.94 0.58 M259.85 47.75 C273.74 31.94, 287.76 16.86, 301.63 1.01 M267.33 47.35 C282.67 28.7, 299.1 11.07, 306.12 -1.41 M266.3 47.63 C283.02 29.82, 298.67 11.39, 307.56 -0.47 M272.54 48.59 C281.59 38.39, 291.64 24.34, 314.34 -0.91 M271.31 47.25 C286.5 29.72, 300.59 14.14, 312.64 0.53 M277.9 47.23 C287.6 38.45, 294.53 27.71, 318.66 1.06 M275.32 47.23 C291.77 30.7, 306.02 13.03, 318.41 -0.82 M281.28 48.45 C290.91 36.77, 301.79 27.06, 324.76 0.14 M281.99 48.13 C299.11 27.8, 314.92 10.26, 323.99 1.04 M285.18 48.07 C299.77 36.32, 307.59 23.71, 328.92 -0.19 M287.53 47.92 C297.6 35.95, 309.96 22.9, 327.95 -0.61 M292.68 47.77 C302.26 37.12, 311.46 23.53, 335.55 -1.28 M292.59 47.29 C305.79 31.49, 320.26 15.29, 333.66 0.65 M297.02 46.38 C315.66 31.05, 329.59 10.54, 341.18 -2.13 M297.64 47.06 C308.54 35.03, 321.11 22.37, 339.19 -0.27 M300.87 47.84 C316.83 30.24, 331.41 15.29, 343.94 -0.06 M302.19 48.31 C315.73 32.53, 329.33 18.28, 344.67 -0.59 M309.15 48.76 C315.16 37.92, 322.83 28.55, 350.94 1.2 M307.43 47.95 C322.19 33.25, 334.83 16.89, 349.53 0.48 M313.81 49.85 C328.91 28.25, 344.65 11.92, 355.02 -0.94 M312.92 48.45 C321.54 38.11, 331.01 28.37, 355.11 -0.68 M317.17 47.96 C330.42 36.01, 340.28 25.69, 359.55 -0.42 M319.75 47.83 C334.13 29.82, 348.74 13.39, 359.39 -0.42 M325.4 47.34 C332.61 35.21, 342.98 25.3, 365.76 1.44 M323.98 49.17 C337.47 32.41, 349.04 17.91, 366.14 0.28 M328.55 46.85 C343.74 32.52, 355.12 16.48, 368.95 0.72 M328.49 47.87 C341.25 32.95, 354.62 19.21, 369.01 2.7 M334.04 47.26 C340.93 41.58, 348.3 32.73, 369.81 6.88 M334.32 49.11 C344.19 36.29, 355.72 23.91, 368.75 8.47 M338.65 46.43 C350.51 33.19, 363.04 20.32, 370.41 13.97 M340.62 47.18 C349.52 36.58, 359 24.82, 369.09 14.96 M346.02 46.65 C355.08 36.37, 362.33 27.2, 367.82 20.46 M345.94 48.86 C351.52 41.64, 357.23 34.65, 370.16 21.16 M350.68 45.81 C354.19 40.36, 362.86 37.13, 370.09 24.96 M350.17 46.81 C357.19 41.64, 362.86 33.86, 368.45 27.58 M355.51 48.71 C360.97 43.38, 365.16 36.9, 367.66 34.17 M355.88 48.94 C359.32 45.02, 361.58 41.58, 370 32.32 M360.37 46.84 C363.43 45.35, 366.19 42.68, 370.18 38.41 M361.86 47.75 C363.16 45.8, 364.95 43.69, 369.55 38.58" stroke="#a5d8ff" stroke-width="0.5" fill="none"></path><path d="M1.07 0.88 C89.69 1.5, 180.87 2.35, 366.58 0.66 M0.14 0.33 C90.01 -0.39, 181.58 -0.38, 366.54 -0.61 M367.98 1.13 C367.86 11.14, 367.89 23.31, 367.52 46.11 M366.01 -0.75 C366.21 11.9, 365.78 23.12, 367.55 46.92 M366.18 46.41 C271.75 44.66, 175.7 46.4, 0.55 48.2 M366.78 46.82 C282.68 48.27, 200.25 48.37, -0.22 47.8 M1.34 47.62 C0.08 31.01, -0.99 14.44, -1.57 1.56 M-0.52 48.14 C0.05 36.94, 1.05 27.74, 0.77 -0.3" stroke="#1e1e1e" stroke-width="1" fill="none"></path></g><g transform="translate(491.521484375 197.216796875) rotate(0 61.589927673339844 12.5)"><text x="0" y="0" font-family="Virgil, Segoe UI Emoji" font-size="20px" fill="#1e1e1e" text-anchor="start" style="white-space: pre;" direction="ltr" dominant-baseline="text-before-edge">.tar.gz layer</text></g><g stroke-linecap="round" transform="translate(480.744140625 245.267578125) rotate(0 183.427734375 23.662109375)"><path d="M0 0 C0 0, 0 0, 0 0 M0 0 C0 0, 0 0, 0 0 M-0.17 6.46 C2.03 4.07, 2.91 2.35, 4.84 0.01 M-0.25 6.15 C1.38 4.78, 3.16 2.08, 5.37 0.64 M0.78 12.61 C2.11 7.15, 6.58 4.48, 10.74 0.89 M-0.01 12.49 C3.22 9.42, 5.45 6.34, 10.63 0.44 M-1.02 16.57 C5.28 13.32, 6.27 12.01, 14.46 -1.14 M0.44 17.91 C3.95 12.52, 10.37 7.71, 14.73 1.14 M0.72 23.58 C3.74 18.05, 11.29 13.69, 22.78 -2 M1.06 23.9 C3.73 19.16, 9.7 14.07, 21.52 0.51 M-1.17 28.93 C5.89 20.42, 13.91 14.7, 28.07 2.1 M0.86 31.41 C7.35 21.61, 16.35 12.63, 25.9 0.57 M-2.2 38.73 C8.72 25.38, 18.13 14.44, 30.44 1.69 M0.13 37.16 C8.55 26.45, 17.19 16.3, 31.03 0.04 M1.27 43.06 C8.58 30.4, 20.51 20.07, 37.76 -0.94 M-0.24 42.71 C8.99 32.8, 17.65 22.33, 36.43 1.08 M-0.06 48.28 C17.12 29.34, 33.44 12.58, 44.14 0.98 M1.33 48.56 C14.64 31.66, 28.53 14.28, 42.6 -0.1 M8.07 47.43 C18.86 29.74, 34.26 14.23, 45.96 -0.53 M5.71 48.51 C19.73 31.78, 33.55 15.49, 47.19 -0.57 M11.62 46.65 C24.69 36.16, 33.93 22.05, 52.35 0.53 M11.35 47.84 C23.65 35.1, 33.26 22.46, 53.59 -0.1 M15.91 46.73 C29.81 31.41, 45.74 12.96, 57.22 0.92 M16.03 46.89 C29.98 30.32, 44.36 13.94, 59.04 -0.51 M21.04 49.26 C33.69 38.04, 42.34 23.69, 65.7 0.87 M22.41 48.91 C37.37 28.11, 54.48 10.85, 63.29 -1.08 M28.33 49.27 C36.63 38.13, 44.29 27.88, 70.22 0.89 M26.66 46.74 C40.38 33.56, 53 18.57, 68.73 0.13 M32.38 48.08 C43.21 35.5, 58.7 20.03, 72.94 -1.57 M32.54 47.41 C46.51 31.51, 62.47 13.46, 74.95 -1.12 M39.55 45.97 C49.76 31.53, 65.58 16.09, 77.79 0.72 M38.09 46.75 C54.56 30.48, 68.7 12.37, 78.96 -0.65 M43.96 46.97 C53.31 38.13, 59.32 28.55, 84.94 1.48 M43.69 48.06 C57.13 33.48, 68.1 19.15, 85.74 -1.22 M49.97 47.61 C58.02 36.97, 66.34 28.79, 90.83 1.65 M48.75 46.68 C65.85 27.5, 82.24 9.69, 90.39 0.15 M52.2 49.65 C64.14 37.19, 73.14 25.44, 94.68 -1.81 M53.76 48.65 C66.31 33.32, 79.34 18.48, 94.77 -1.31 M58.05 48.85 C70.56 36.48, 76.48 24.09, 102.42 0.78 M59 47.32 C73.02 32.29, 86.22 15.08, 101.6 0.63 M63.67 47.71 C79.79 32.17, 92.41 17.06, 105.28 0.59 M64.58 48 C78.03 33.17, 91.11 17.36, 107.1 -0.27 M67.78 48.99 C82.83 33.3, 99.59 16.36, 111.73 -0.93 M68.48 49.31 C80.58 34.93, 91.59 22.28, 111.1 -0.05 M75.03 48.64 C87.07 34.3, 103.19 15.72, 117.34 1.36 M75.91 48.04 C84.29 37.65, 94.31 26.86, 117.04 0.83 M79.21 48.92 C91.68 32.6, 103.47 20.55, 120.07 1.38 M80.74 48.07 C95.12 29.89, 109.26 12.86, 121.35 0.32 M85.11 47.78 C101.59 30.21, 117.47 13.42, 127.54 -1.23 M85.46 47.71 C100.62 29.66, 116.88 9.52, 126.85 -0.27 M92.55 47.7 C106.05 28.5, 121.35 11.33, 130.88 0.43 M91.31 48.35 C103.91 34.78, 114.72 20.69, 132.74 -0.97 M94.83 48.36 C106.89 35.39, 117.66 23.18, 136.72 1.24 M96.88 47.05 C108.87 32.28, 121.58 17.29, 136.72 -0.5 M102.79 47.48 C115.38 30.89, 129.42 12.58, 141.7 0.82 M100.29 49.21 C111.06 35.74, 123.36 23.95, 143.61 0.4 M107.25 49.48 C122.97 30.26, 139.42 10.46, 148.48 0.3 M107.75 47.15 C122.57 29.56, 138.46 13.75, 147.46 -0.49 M111.05 46.3 C125.33 29.69, 140.57 13.23, 152.22 -0.97 M111.73 48.78 C126.55 32.02, 140.5 14.48, 154.22 -0.16 M115.54 46.11 C131.08 32.79, 142.3 20.62, 160.59 -0.63 M117.58 48.17 C128.61 35.15, 138.29 23.07, 157.8 0.2 M120.58 50.07 C132.45 35.21, 141.96 24.53, 164.25 -0.59 M121.63 48.23 C138.11 31.38, 152.85 12.82, 164.77 -0.17 M127.03 49.1 C143.87 31.82, 158.06 12.11, 168.9 1.73 M127.83 47.31 C143.92 28.91, 161.03 10.06, 170.42 1.05 M132.75 48.58 C149.51 28.14, 165.46 9.09, 173.72 -1.83 M133.9 47.83 C142.89 38.23, 151.03 26.98, 175.42 -0.12 M139.13 49.17 C154.53 32.2, 165.96 16.26, 179.41 -1.45 M137.9 46.87 C149.58 35.96, 161.9 21.26, 179.93 0.64 M143.05 47.5 C152.87 34.5, 164.73 25.82, 186.68 -0.58 M144.41 48.86 C155.22 34.8, 168.07 20.41, 186.24 0.59 M147.4 48.93 C163.09 30.31, 180.37 13.2, 192.24 0.86 M149.11 48.17 C162.95 32.81, 175.83 17.54, 190.89 0.57 M153.1 48.35 C169.3 32.87, 181.52 14.16, 195.32 -0.86 M154.96 47.72 C168.25 31.78, 182.71 14.48, 197.26 -0.39 M161.54 46.85 C174.71 30.6, 188.23 12.91, 201.64 -0.42 M160.74 47.62 C170.8 36.91, 180.48 23.67, 201.76 -0.45 M166.64 48.55 C180.34 31.2, 194.51 13.89, 205.94 1.18 M165.28 47.82 C181.01 30.21, 196.43 12.12, 206.42 -0.34 M169.33 49.28 C181.77 32.18, 195.51 16.35, 211.97 1.48 M169.99 46.69 C182.78 34.23, 193.31 20.9, 210.99 -0.69 M177.54 49.38 C192.58 30.31, 203.98 14.62, 218.97 1.25 M175.05 47.68 C189.58 32.26, 203.82 15.95, 217.62 0.52 M180.72 46.44 C193.35 32.03, 208.83 17.14, 221.72 1.24 M182 47.91 C197.3 29.36, 212.45 11.02, 222.94 0.66 M185.81 48.02 C196.59 39.21, 205.52 28.12, 228.98 -1.04 M185.89 48.84 C196.41 37.6, 206.29 24.9, 228.7 -0.98 M191.1 49.19 C204.14 32.51, 220.13 15.83, 231.53 1.4 M191.2 47.61 C206.56 31.26, 220.1 14.44, 233.9 -0.53 M197.54 49.5 C204.94 36.83, 217.07 25.25, 239.99 -1.46 M197.33 47.93 C206.31 36.36, 215.92 25.49, 238.76 -0.17 M199.98 49.99 C210.47 36.4, 218.03 26.49, 244.12 0.35 M201.92 48.96 C217.51 32.34, 231.25 15.19, 244.11 0.69 M209 46.72 C219.05 33.07, 232.85 18.93, 248.11 1.82 M206.88 48.64 C223.32 28.64, 238.47 12.23, 248.82 0.4 M210.99 47.46 C226.33 31.2, 241.98 16.16, 256.38 0.4 M212.46 48.4 C222.72 37.47, 232.9 25.07, 253.75 0.31 M218.55 48.48 C233.78 29.77, 252.16 9.22, 257.62 0.8 M217.95 47.71 C226.87 36.34, 236.26 25.43, 259.88 -0.49 M222.57 47.3 C236.52 29.92, 252.58 10.92, 263.28 -0.3 M223.72 48.74 C240.27 29.72, 254.67 9.91, 264.93 -0.62 M230.68 47.43 C236.77 38.99, 246.45 29.54, 271.58 -1.44 M227.91 46.95 C239.74 36.28, 248.58 25.01, 269.5 0.26 M235.28 47.13 C242.32 36.13, 251.07 26.04, 273.97 0.29 M234.52 47.79 C243.76 35.96, 254.08 24.49, 275.7 0.03 M240.02 48.12 C247.24 38.13, 255.55 28.9, 279.17 2.08 M240.05 47.24 C256.49 29.02, 272.1 10.12, 281.22 0.79 M243.8 48.41 C260.69 31.76, 275.25 10.47, 287.66 0.08 M243.63 48.48 C259.18 31.08, 275.53 12.18, 286.04 -0.55 M251.3 46.96 C266 27.79, 284.06 10.87, 291.69 -1.79 M249.62 48.51 C263.41 30.51, 279.06 15.3, 290.48 0.34 M256.94 48.5 C267.93 31.27, 284.05 14.29, 297.75 0.86 M255.76 48.76 C266.58 34.58, 277.56 21.8, 297.88 -0.13 M259.4 48.24 C271.56 35.78, 281.26 27.02, 302.59 1.68 M259.78 47.75 C273.55 34.48, 285.4 20.73, 302.68 -0.84 M265.62 48.63 C282.19 28.33, 299.55 8.48, 307.72 0.29 M265.55 47.66 C278.98 33.31, 291.72 19.74, 307.09 0.62 M269.31 48.11 C282.34 30.59, 297.67 16.84, 311.41 -0.92 M271.66 47.02 C284.28 33.34, 297.5 17.8, 313.16 0.61 M274.91 49.88 C292.23 30.47, 309.41 9.47, 319.18 -0.09 M275.59 47.28 C290.72 30.07, 308.15 12.2, 317.46 0.05 M280.15 46.61 C295.65 33.26, 305.09 20.22, 323.83 0.9 M282.3 47.45 C290.69 38.13, 299.33 28.44, 323.17 -0.92 M287.99 49.23 C303.47 28.62, 318.06 11.74, 327.89 1.13 M286.38 48.76 C298.09 33.34, 311 21.57, 328.73 -0.38 M293.16 47.66 C309.05 27.69, 324.16 11.69, 335.67 1.47 M292.68 47.23 C302.76 34.42, 314.65 21.09, 333.93 0.05 M298.15 47.55 C308.33 34.71, 320.28 20.74, 339.72 1.24 M298.4 48.33 C311.65 33.42, 323.96 17.62, 338.57 -0.19 M303.06 47.79 C316.53 30.29, 335.33 13.3, 344.85 -0.97 M303.08 48.35 C315.58 34.07, 328.14 17.67, 344.58 0.04 M308.85 49.54 C320.1 34.61, 332.07 21.07, 349.99 2.15 M308.03 47.25 C320.01 33.96, 333.84 19.53, 349.95 0.93 M312.65 49.17 C326.67 34.8, 336.92 20.16, 355.43 -0.33 M313.68 47.61 C323.9 36.99, 331.89 25.9, 354.19 0.64 M317.62 47.81 C331.27 35.41, 344.13 17.47, 358.15 -0.6 M319.6 47.88 C332.19 31.13, 347.25 15.6, 359.72 0.11 M324.9 48.08 C333.78 34.86, 345.88 21, 365.6 1.37 M324.6 49.14 C334 35.71, 344.91 24.63, 365.8 0.5 M328.15 46.83 C342.86 34.39, 354.81 16.74, 370.46 0.15 M329.38 47.61 C338.94 34.86, 349.45 22.93, 369.4 1.29 M333.55 47.93 C348.73 31.81, 360.11 17.59, 368.44 6.28 M334.6 47.38 C345.83 34.49, 357.11 21.52, 369.13 7.65 M338.26 46.96 C348.34 41.85, 353.51 33.51, 368.78 15.01 M339.58 46.92 C350.89 34.07, 361.22 21.35, 369.89 15.02 M346.46 48.01 C352.81 36.35, 363.88 29.74, 370.32 19.59 M344.35 47.81 C350.54 41.58, 356.58 35.02, 369.02 20.33 M351.86 48.41 C354.81 45.03, 359.27 40.28, 368.08 28.56 M350.34 47.32 C356.43 39.49, 363.48 33.01, 369.05 27.05 M357.64 47.49 C362.84 42.2, 367.36 35.74, 371.08 31.14 M356.46 49.01 C359.8 41.64, 366.24 35.58, 369.58 32.61 M362.33 47.48 C363.69 44.52, 366.53 42.97, 369.87 38.33 M361.56 47.54 C364.06 44.73, 365.62 42.48, 369.38 38.87" stroke="#a5d8ff" stroke-width="0.5" fill="none"></path><path d="M-0.39 0.25 C121.25 0.52, 243.98 2.36, 365.7 0.96 M-0.25 -0.46 C135.34 0.45, 271.55 0.42, 366.76 0.39 M367.52 0.94 C366.93 14.67, 365.35 32.18, 368.78 47.24 M367.75 0.85 C367.89 12.67, 367.47 24.61, 366.57 46.35 M366.08 47.22 C284.93 46.22, 204 44.47, 0.94 47.32 M367.22 46.76 C228.31 46.5, 89.76 46.38, -0.39 47.14 M-1.42 48.29 C-1.27 30.12, -0.77 12.34, -1.99 1.63 M0.42 46.59 C0.35 30.19, -0.47 12.78, 0.19 -0.69" stroke="#1e1e1e" stroke-width="1" fill="none"></path></g><g transform="translate(493.396484375 256.490234375) rotate(0 61.589927673339844 12.5)"><text x="0" y="0" font-family="Virgil, Segoe UI Emoji" font-size="20px" fill="#1e1e1e" text-anchor="start" style="white-space: pre;" direction="ltr" dominant-baseline="text-before-edge">.tar.gz layer</text></g><g stroke-linecap="round" transform="translate(480.505859375 309.748046875) rotate(0 183.427734375 23.662109375)"><path d="M0 0 C0 0, 0 0, 0 0 M0 0 C0 0, 0 0, 0 0 M-1.04 6.32 C2.17 4.66, 3.12 2.34, 4.36 -0.44 M-0.55 6.25 C1.4 4.87, 2.8 2.84, 4.6 0.06 M-1.43 12.21 C5 7.57, 8.03 4.27, 10.05 0.24 M-0.26 11.27 C4.14 7.78, 8.71 3.91, 10.66 -0.01 M-1.38 18.76 C4.32 14.62, 6.67 10.07, 15.53 0.41 M-0.39 18.04 C3.34 13.76, 6.52 10.92, 15.25 -0.42 M0.38 23.07 C8.06 13.67, 13.34 7.19, 20.27 -0.76 M-0.19 23.43 C8.53 14.88, 15.56 6.18, 20.61 -1.03 M-0.39 30.98 C7.82 20.59, 15.37 13.49, 27.7 1.02 M0.56 30.28 C11.47 18.83, 21.87 6.9, 26.67 -0.32 M-1.32 36.64 C6.14 24.77, 16.99 16.83, 33.02 0.84 M-1.16 36.25 C7.22 27.36, 15.42 17.23, 32.27 -0.55 M-1.08 42.06 C7.24 31.65, 16.52 21.33, 36.53 -0.06 M0.93 43.25 C8.62 32.82, 17.83 22.22, 36.59 -0.34 M2.13 47.93 C9.06 36.81, 22.48 24.09, 43.67 0.92 M-0.22 48.29 C8.99 38.08, 17.12 29.37, 43 0.65 M4.49 46.5 C19.38 30.45, 37.46 13.22, 46.48 -0.97 M6.76 48.61 C15.83 35.94, 26.9 25.55, 48.43 1.18 M10.25 46.5 C25.87 32.72, 39.2 12.31, 51.63 1.4 M11.32 48.64 C22.29 34.72, 35.66 20.57, 53.26 -0.3 M16.91 49.24 C30.51 33.47, 44.44 16.63, 57.91 -1.7 M15.91 48.27 C26.92 36.78, 34.72 25.62, 58.66 -0.15 M20.05 49.17 C35.67 32.03, 49.5 15.92, 64.21 -1.65 M20.83 47.5 C31.05 37.06, 39.26 27.32, 64.53 -0.3 M29.38 49.13 C40.08 33.5, 53.32 15.74, 67.04 -0.15 M28.04 47.84 C37.31 35.82, 49.1 23.57, 68.8 -0.77 M34.24 47.57 C39.66 37.54, 51.99 24.91, 72.55 -2.06 M32.59 47.67 C45.1 33.63, 58.38 19.1, 75.37 -0.35 M39.57 45.84 C55.99 29.39, 71.54 10.5, 77.98 -0.07 M38.46 47.59 C46.85 37.31, 54.61 27.37, 79.44 0.8 M43.43 47.42 C53.34 36, 60.07 24.08, 83.7 0.49 M43.95 47.87 C52.32 35.53, 64.08 25.3, 85.41 0.51 M49.01 49.18 C60.98 31.66, 77.2 18.47, 90.69 0.92 M49.54 47.73 C60.37 35.21, 71.05 22.02, 90.23 -0.01 M54.09 48.61 C61.85 37.99, 72.42 28.25, 96.56 0.41 M53.3 48.79 C67.12 34.34, 78.89 19.06, 95.33 -0.82 M59.11 47.08 C74.63 29.29, 90.17 11.6, 101.03 -0.7 M58.72 48.4 C73.26 31.47, 86.03 17.81, 99.9 0.16 M64.58 49.12 C80.08 32.16, 94.34 15.51, 105.93 -1.72 M64.11 47.04 C79.31 30.37, 93.66 13.9, 106.87 0.49 M70.5 46.37 C82.6 30.53, 96.22 16.36, 112.72 1.7 M69.83 48.43 C85.1 31.74, 99.54 13.26, 112.22 0.61 M73.11 49.08 C86.8 30.61, 102.07 15.5, 117.81 1.53 M74.91 47.16 C86.82 33.25, 98.93 19.18, 116.2 -0.04 M81.66 49.69 C91.29 34.84, 105.84 16.62, 121.36 0.86 M79.75 48.34 C88.66 38.46, 97.49 28.36, 122.03 0.58 M85.79 46.73 C99.73 29.92, 112.68 13.19, 128.05 1.45 M85.3 47.65 C92.83 37.63, 101.25 29.18, 126.5 0.79 M88.97 48.13 C103.92 35.75, 115.17 21.98, 134.43 -0.35 M90.45 48.83 C102.85 33.65, 115.48 19.32, 133.23 -0.76 M96.59 46.44 C110.43 35.23, 120.17 16.92, 138.41 1.72 M95.91 46.93 C109.36 32.6, 121.33 18.22, 138.03 0.37 M101.35 50.1 C114.61 31.67, 131.43 14.09, 143.27 -0.94 M101.6 47.8 C110.66 38.62, 121.13 26.76, 142.79 -0.29 M107.35 46.69 C114.05 36.88, 122.74 26.94, 147.17 -0.58 M106.48 47.37 C118.22 34.11, 130.77 20.07, 148.81 -0.7 M111.57 50.17 C124.85 32.1, 140.95 15.82, 155.12 -1.79 M111.96 49.08 C128.03 28.91, 144.36 11.22, 154.74 -0.97 M115.82 48.12 C133.32 29.99, 150.85 13.69, 160.5 1.71 M117.77 47.25 C133.2 29.15, 147.78 11.3, 157.89 0.07 M124.3 49.02 C137.08 30.22, 151.79 15.01, 165.06 -1.66 M123.33 48.44 C138.51 29.18, 154.82 9.31, 164.17 0.19 M127.58 49.47 C138.92 36.18, 145.95 28.66, 168.42 1.91 M127.63 46.83 C137.56 38.19, 146.91 26.79, 169.4 1.16 M132.08 49.46 C141.16 39.09, 151.14 29.5, 176.07 -1.16 M132.6 47.59 C143.68 36.5, 152.76 27.01, 175.23 0.12 M140.1 47.6 C150.19 35.02, 159.88 24.64, 180.86 -0.55 M138.97 48.26 C148.93 34.76, 159.92 22.73, 180.5 0.96 M143.32 48.41 C153.2 35.52, 165.69 24.46, 187.01 1.18 M143.68 48.16 C153.33 35.74, 165.12 23.11, 185.14 -0.32 M150.75 49.51 C162.64 31.22, 175.99 16.56, 191.61 -0.12 M149.74 47.68 C162.45 31.99, 175.01 17.74, 191.47 -0.21 M154.3 48.93 C165.46 35.32, 177.56 19.91, 196.6 0.99 M153.59 47.74 C166.11 33.33, 178.3 21.2, 196.17 -0.34 M160.74 48.32 C173.06 32.45, 187.26 13.29, 202.31 -1.12 M160.98 47.12 C168.42 36.45, 179.3 26.19, 201.6 -0.08 M165.2 48.21 C178.57 33.39, 189.66 21.8, 207.43 0.01 M164.37 47.85 C176.55 35.68, 186.69 23.53, 207.67 -1.19 M171.17 47.27 C186.7 27.04, 203.56 11.25, 210.52 -1.74 M170.78 48.57 C179.01 38.79, 188.04 27.76, 211.26 -0.43 M176.04 49.55 C188.56 32.31, 200.81 18.66, 217.99 -1.88 M175.15 47.94 C191.73 29.58, 205.33 13.35, 218.05 -0.2 M183.03 47.73 C197.61 28.76, 215.68 8.81, 221.64 1.96 M180.28 47.97 C191.48 35.75, 203.04 22.11, 221.9 0.87 M186.74 46.38 C196.38 35.39, 206.78 24.27, 226.62 1.3 M186.12 47.41 C200.19 30.78, 215.74 14.51, 228.75 -0.75 M192.49 49.95 C199.55 38.79, 210.38 28.02, 232.96 0.03 M191.06 47.91 C207.83 29.31, 222.86 12.06, 234 -0.09 M197.08 46.27 C212.47 30.62, 229.45 10.58, 238.89 -1.57 M196.53 47.59 C212.38 31.4, 227.58 14.47, 237.67 0.45 M201.6 50.05 C210.55 38.34, 219.18 27.37, 245.64 0.65 M201.69 48.71 C219.32 28.47, 234.03 10.18, 243.13 0.7 M206.73 46.88 C219.97 31.57, 235.08 15.7, 250.21 2.25 M206.67 47.75 C221.28 31.01, 235.13 15.27, 249.7 0.39 M214.3 48.51 C221.67 32.98, 234.71 20.68, 252.72 -1.87 M211.88 48.84 C223.5 35.84, 236.06 20.66, 253.91 -0.79 M219.23 48.03 C229.56 34.75, 242.23 19.59, 257.91 1.87 M217.93 47.09 C227.5 35.86, 237.34 24.72, 258.84 0.24 M223.07 47.21 C237.7 30.88, 251.49 15.54, 263.11 0.9 M223.01 47.98 C231.99 37.56, 240.46 28.03, 266.02 -0.69 M229.98 47.65 C240.98 32.97, 254.53 20.32, 271.82 -0.2 M228.74 48.75 C236.31 37.85, 246.11 28.81, 270.8 0.37 M232.25 50.14 C247.41 32.78, 260.1 16.61, 277.6 -0.49 M233.55 47.75 C250.75 29.69, 266.86 9.08, 276.21 0.85 M238.28 45.8 C249.79 38.02, 255.57 27.36, 281.68 0.64 M238.59 47.82 C252.48 32.01, 266.5 16.93, 280.37 1.08 M246.07 47.42 C261.41 28.77, 277.84 11.14, 284.86 -1.34 M245.04 47.69 C261.76 29.89, 277.41 11.46, 286.3 -0.4 M251.28 48.65 C260.33 38.46, 270.38 24.4, 293.08 -0.84 M250.05 47.32 C265.24 29.79, 279.33 14.21, 291.38 0.6 M256.64 47.3 C266.34 38.52, 273.27 27.78, 297.4 1.13 M254.06 47.3 C270.51 30.77, 284.76 13.1, 297.15 -0.75 M260.02 48.52 C269.65 36.84, 280.53 27.13, 303.5 0.21 M260.73 48.2 C277.85 27.87, 293.66 10.33, 302.73 1.11 M263.92 48.14 C278.51 36.39, 286.33 23.78, 307.66 -0.12 M266.27 47.99 C276.34 36.02, 288.7 22.97, 306.69 -0.54 M271.42 47.84 C281 37.19, 290.2 23.59, 314.29 -1.21 M271.33 47.36 C284.53 31.56, 299 15.36, 312.4 0.72 M275.76 46.45 C294.4 31.12, 308.33 10.61, 319.92 -2.06 M276.38 47.13 C287.28 35.1, 299.85 22.44, 317.93 -0.2 M280.26 47.16 C296 29.81, 310.35 15.12, 322.68 0.01 M281.59 47.62 C294.92 32.08, 308.31 18.07, 323.41 -0.52 M287.89 48.82 C294.03 37.83, 301.83 28.31, 330.33 0.51 M286.17 48.02 C301.14 33.08, 313.99 16.48, 328.92 -0.21 M293.21 49.16 C308.06 27.85, 323.56 11.81, 333.76 -0.87 M292.31 47.76 C300.8 37.59, 310.13 28.01, 333.85 -0.61 M295.91 48.03 C309.32 35.89, 319.35 25.38, 338.94 -1.1 M298.49 47.9 C313.11 29.61, 327.95 12.91, 338.79 -1.1 M304.14 47.41 C311.35 35.28, 321.72 25.36, 344.5 1.51 M302.72 49.24 C316.21 32.48, 327.78 17.98, 344.88 0.35 M307.29 46.92 C322.91 32.09, 334.73 15.53, 349 -0.72 M307.23 47.94 C320.4 32.54, 334.19 18.31, 349.06 1.26 M312.78 47.32 C321.07 39.9, 329.91 29.36, 355.76 -1.35 M313.06 49.18 C325.11 33.94, 338.78 19.11, 354.71 0.24 M317.39 46.5 C334.23 27.56, 351.73 8.97, 361.62 -0.3 M319.36 47.25 C332.46 31.9, 346.08 15.38, 360.3 0.69 M324.76 46.72 C340.14 29.27, 353.74 12.78, 364.27 0.16 M324.68 48.93 C334.82 36.74, 344.92 24.71, 366.62 0.86 M329.42 45.88 C339.01 33.76, 353.65 23.66, 370.48 0.12 M328.91 46.88 C342.72 33.71, 355.36 17.91, 368.84 2.74 M334.25 48.78 C347.45 34.81, 359.21 19.61, 367.4 10.09 M334.62 49.01 C342.87 39.33, 350.07 30.19, 369.73 8.24 M338.49 46.31 C348.5 38.3, 357.97 28.26, 370.59 14.14 M340.97 47.83 C346.2 40.89, 352.42 33.65, 369.53 14.42 M343.27 46.8 C354.6 36.02, 362.38 28.71, 369.56 21.78 M345.02 47.86 C352.98 39.93, 361.12 29.8, 369.38 19.53 M351.57 47.16 C354.96 41.69, 364.03 33.77, 367.86 27.63 M349.69 47.01 C356.36 42.03, 361.34 34.21, 369.3 26.8 M353.75 48.22 C362.13 40.68, 366.75 33.61, 370.39 31.45 M355.06 47.89 C361.69 42.62, 365.4 37, 369.33 32.57 M360.23 46.65 C365.06 45.68, 365.87 41.58, 369.03 37.91 M361.89 47.47 C363.91 45.22, 366.04 41.87, 369.06 38.1" stroke="#a5d8ff" stroke-width="0.5" fill="none"></path><path d="M-0.33 -0.45 C99.82 1.39, 200.19 1.72, 367.49 0.79 M-0.3 -0.19 C89.78 -1.66, 179.23 -0.6, 367.22 -0.59 M366.67 -0.34 C365.22 13.43, 367.44 27.93, 367.46 48.5 M367.42 -0.1 C366.99 10.41, 365.81 21.7, 367.14 47.69 M366.32 46.26 C256.66 45.45, 148.92 45.91, 0.08 48.45 M367.43 46.93 C276.15 47.2, 185.3 47.22, 0.23 46.95 M-0.8 49.21 C-0.79 35.27, 1.92 27.5, 0.28 0.86 M-0.79 46.59 C-0.25 36.49, -0.12 26.31, -0.69 -0.43" stroke="#1e1e1e" stroke-width="1" fill="none"></path></g><g transform="translate(493.158203125 320.970703125) rotate(0 61.589927673339844 12.5)"><text x="0" y="0" font-family="Virgil, Segoe UI Emoji" font-size="20px" fill="#1e1e1e" text-anchor="start" style="white-space: pre;" direction="ltr" dominant-baseline="text-before-edge">.tar.gz layer</text></g><g stroke-linecap="round"><g transform="translate(364.1328125 165.6484375) rotate(0 55.20406508073211 -4.732436023754076)"><path d="M0.23 0.15 C35.28 -3.37, 66.97 -5.72, 109.05 -9.61 M0.02 -0.63 C36.55 -1.18, 73.46 -5.79, 110.38 -8.03" stroke="#1e1e1e" stroke-width="1" fill="none"></path></g><g transform="translate(364.1328125 165.6484375) rotate(0 55.20406508073211 -4.732436023754076)"><path d="M83.27 4.45 C93.16 -0.61, 99.71 -4.05, 110.02 -8.9 M83.06 3.67 C91.93 1.29, 101.17 -4.53, 111.35 -7.32" stroke="#1e1e1e" stroke-width="1" fill="none"></path></g><g transform="translate(364.1328125 165.6484375) rotate(0 55.20406508073211 -4.732436023754076)"><path d="M81.74 -16.02 C92.28 -14.8, 99.31 -11.97, 110.02 -8.9 M81.53 -16.79 C90.8 -12.26, 100.54 -11.18, 111.35 -7.32" stroke="#1e1e1e" stroke-width="1" fill="none"></path></g></g><mask></mask><g stroke-linecap="round"><g transform="translate(368.9921875 208.76434565047703) rotate(0 54.960405476391315 0.3676447474036877)"><path d="M-0.62 -0.65 C41.16 0.21, 80.32 1.09, 110.54 1.39 M0.18 0.9 C41.3 0.07, 82.82 1.79, 109.42 0.59" stroke="#1e1e1e" stroke-width="1" fill="none"></path></g><g transform="translate(368.9921875 208.76434565047703) rotate(0 54.960405476391315 0.3676447474036877)"><path d="M80.77 10.65 C93.29 8.31, 103.25 5.3, 110.4 1.83 M81.57 12.2 C91.64 6.57, 102.06 4.15, 109.27 1.04" stroke="#1e1e1e" stroke-width="1" fill="none"></path></g><g transform="translate(368.9921875 208.76434565047703) rotate(0 54.960405476391315 0.3676447474036877)"><path d="M80.44 -9.87 C93.2 -4.86, 103.28 -0.52, 110.4 1.83 M81.24 -8.32 C91.35 -6.12, 101.89 -0.71, 109.27 1.04" stroke="#1e1e1e" stroke-width="1" fill="none"></path></g></g><mask></mask><g stroke-linecap="round"><g transform="translate(367.00390625 269.70703125) rotate(0 57.28323995694524 1.6485318068257584)"><path d="M1.46 0.73 C40.48 0.08, 81.17 -0.1, 112.68 3.35 M-0.04 -0.02 C42.89 -0.34, 85.27 1.8, 114.61 2.35" stroke="#1e1e1e" stroke-width="1" fill="none"></path></g><g transform="translate(367.00390625 269.70703125) rotate(0 57.28323995694524 1.6485318068257584)"><path d="M87.6 12.56 C96.43 8.05, 106.84 3.4, 112.69 2.45 M86.1 11.81 C96.73 7.17, 106.78 4.54, 114.62 1.46" stroke="#1e1e1e" stroke-width="1" fill="none"></path></g><g transform="translate(367.00390625 269.70703125) rotate(0 57.28323995694524 1.6485318068257584)"><path d="M88.17 -7.95 C96.66 -5.25, 106.87 -2.68, 112.69 2.45 M86.67 -8.7 C97.05 -5.64, 106.89 -0.57, 114.62 1.46" stroke="#1e1e1e" stroke-width="1" fill="none"></path></g></g><mask></mask><g stroke-linecap="round"><g transform="translate(368.5078125 334.015625) rotate(0 57.313090451061726 1.6258574061895388)"><path d="M-0.99 1.08 C22.55 1.15, 47.15 0.21, 115.62 3.27 M-0.67 -0.81 C23.5 1.41, 46.34 1.92, 114.16 4.06" stroke="#1e1e1e" stroke-width="1" fill="none"></path></g><g transform="translate(368.5078125 334.015625) rotate(0 57.313090451061726 1.6258574061895388)"><path d="M84.66 14.51 C89.91 11.78, 96.29 7.79, 115.64 2.36 M84.99 12.62 C91.81 12.18, 97.22 9.77, 114.18 3.15" stroke="#1e1e1e" stroke-width="1" fill="none"></path></g><g transform="translate(368.5078125 334.015625) rotate(0 57.313090451061726 1.6258574061895388)"><path d="M85.31 -6 C90.53 -4.37, 96.77 -3.99, 115.64 2.36 M85.63 -7.89 C92.21 -4.15, 97.48 -2.39, 114.18 3.15" stroke="#1e1e1e" stroke-width="1" fill="none"></path></g></g><mask></mask></svg>